%TF.GenerationSoftware,KiCad,Pcbnew,10.0.5*%
%TF.CreationDate,2026-09-04T21:38:02+09:00*%
%TF.ProjectId,robodog_servodriver,726f626f-646f-4675-9f73-6572766f6472,rev?*%
%TF.SameCoordinates,Original*%
%TF.FileFunction,Legend,Bot*%
%TF.FilePolarity,Positive*%
%FSLAX46Y46*%
G04 Gerber Fmt 4.6, Leading zero omitted, Abs format (unit mm)*
G04 Created by KiCad (PCBNEW 10.0.5) date 2026-09-04 21:38:02*
%MOMM*%
%LPD*%
G01*
G04 APERTURE LIST*
G04 Aperture macros list*
%AMRoundRect*
0 Rectangle with rounded corners*
0 $1 Rounding radius*
0 $2 $3 $4 $5 $6 $7 $8 $9 X,Y pos of 4 corners*
0 Add a 4 corners polygon primitive as box body*
4,1,4,$2,$3,$4,$5,$6,$7,$8,$9,$2,$3,0*
0 Add four circle primitives for the rounded corners*
1,1,$1+$1,$2,$3*
1,1,$1+$1,$4,$5*
1,1,$1+$1,$6,$7*
1,1,$1+$1,$8,$9*
0 Add four rect primitives between the rounded corners*
20,1,$1+$1,$2,$3,$4,$5,0*
20,1,$1+$1,$4,$5,$6,$7,0*
20,1,$1+$1,$6,$7,$8,$9,0*
20,1,$1+$1,$8,$9,$2,$3,0*%
G04 Aperture macros list end*
%ADD10C,0.150000*%
%ADD11C,0.120000*%
%ADD12C,3.200000*%
%ADD13RoundRect,0.050000X-0.850000X-0.850000X0.850000X-0.850000X0.850000X0.850000X-0.850000X0.850000X0*%
%ADD14C,1.800000*%
%ADD15C,1.300000*%
%ADD16RoundRect,0.300000X0.750000X-0.600000X0.750000X0.600000X-0.750000X0.600000X-0.750000X-0.600000X0*%
%ADD17O,2.100000X1.800000*%
%ADD18C,5.600000*%
%ADD19C,0.690000*%
%ADD20O,2.304000X1.204000*%
%ADD21O,2.004000X1.204000*%
%ADD22RoundRect,0.050000X-0.850000X0.850000X-0.850000X-0.850000X0.850000X-0.850000X0.850000X0.850000X0*%
%ADD23RoundRect,0.800000X-0.750000X0.750000X-0.750000X-0.750000X0.750000X-0.750000X0.750000X0.750000X0*%
%ADD24C,3.100000*%
%ADD25RoundRect,0.050000X0.850000X-0.850000X0.850000X0.850000X-0.850000X0.850000X-0.850000X-0.850000X0*%
%ADD26RoundRect,0.250000X-0.275000X0.200000X-0.275000X-0.200000X0.275000X-0.200000X0.275000X0.200000X0*%
%ADD27RoundRect,0.190000X-0.170000X0.140000X-0.170000X-0.140000X0.170000X-0.140000X0.170000X0.140000X0*%
%ADD28RoundRect,0.190000X0.140000X0.170000X-0.140000X0.170000X-0.140000X-0.170000X0.140000X-0.170000X0*%
%ADD29RoundRect,0.212500X0.162500X-0.650000X0.162500X0.650000X-0.162500X0.650000X-0.162500X-0.650000X0*%
%ADD30RoundRect,0.300000X-0.475000X0.250000X-0.475000X-0.250000X0.475000X-0.250000X0.475000X0.250000X0*%
%ADD31RoundRect,0.300000X-0.250000X-0.475000X0.250000X-0.475000X0.250000X0.475000X-0.250000X0.475000X0*%
%ADD32RoundRect,0.190000X-0.140000X-0.170000X0.140000X-0.170000X0.140000X0.170000X-0.140000X0.170000X0*%
%ADD33RoundRect,0.250000X0.200000X0.275000X-0.200000X0.275000X-0.200000X-0.275000X0.200000X-0.275000X0*%
%ADD34RoundRect,0.300000X0.475000X-0.250000X0.475000X0.250000X-0.475000X0.250000X-0.475000X-0.250000X0*%
%ADD35RoundRect,0.190000X0.170000X-0.140000X0.170000X0.140000X-0.170000X0.140000X-0.170000X-0.140000X0*%
%ADD36RoundRect,0.300000X-0.450000X-0.800000X0.450000X-0.800000X0.450000X0.800000X-0.450000X0.800000X0*%
%ADD37RoundRect,0.300000X-0.800000X0.450000X-0.800000X-0.450000X0.800000X-0.450000X0.800000X0.450000X0*%
%ADD38RoundRect,0.200000X-0.512500X-0.150000X0.512500X-0.150000X0.512500X0.150000X-0.512500X0.150000X0*%
%ADD39C,3.300000*%
G04 APERTURE END LIST*
D10*
X65108057Y-59362419D02*
X65441390Y-58886228D01*
X65679485Y-59362419D02*
X65679485Y-58362419D01*
X65679485Y-58362419D02*
X65298533Y-58362419D01*
X65298533Y-58362419D02*
X65203295Y-58410038D01*
X65203295Y-58410038D02*
X65155676Y-58457657D01*
X65155676Y-58457657D02*
X65108057Y-58552895D01*
X65108057Y-58552895D02*
X65108057Y-58695752D01*
X65108057Y-58695752D02*
X65155676Y-58790990D01*
X65155676Y-58790990D02*
X65203295Y-58838609D01*
X65203295Y-58838609D02*
X65298533Y-58886228D01*
X65298533Y-58886228D02*
X65679485Y-58886228D01*
X64774723Y-58362419D02*
X64155676Y-58362419D01*
X64155676Y-58362419D02*
X64489009Y-58743371D01*
X64489009Y-58743371D02*
X64346152Y-58743371D01*
X64346152Y-58743371D02*
X64250914Y-58790990D01*
X64250914Y-58790990D02*
X64203295Y-58838609D01*
X64203295Y-58838609D02*
X64155676Y-58933847D01*
X64155676Y-58933847D02*
X64155676Y-59171942D01*
X64155676Y-59171942D02*
X64203295Y-59267180D01*
X64203295Y-59267180D02*
X64250914Y-59314800D01*
X64250914Y-59314800D02*
X64346152Y-59362419D01*
X64346152Y-59362419D02*
X64631866Y-59362419D01*
X64631866Y-59362419D02*
X64727104Y-59314800D01*
X64727104Y-59314800D02*
X64774723Y-59267180D01*
X63774723Y-58457657D02*
X63727104Y-58410038D01*
X63727104Y-58410038D02*
X63631866Y-58362419D01*
X63631866Y-58362419D02*
X63393771Y-58362419D01*
X63393771Y-58362419D02*
X63298533Y-58410038D01*
X63298533Y-58410038D02*
X63250914Y-58457657D01*
X63250914Y-58457657D02*
X63203295Y-58552895D01*
X63203295Y-58552895D02*
X63203295Y-58648133D01*
X63203295Y-58648133D02*
X63250914Y-58790990D01*
X63250914Y-58790990D02*
X63822342Y-59362419D01*
X63822342Y-59362419D02*
X63203295Y-59362419D01*
X61827580Y-61331733D02*
X61875200Y-61284114D01*
X61875200Y-61284114D02*
X61922819Y-61141257D01*
X61922819Y-61141257D02*
X61922819Y-61046019D01*
X61922819Y-61046019D02*
X61875200Y-60903162D01*
X61875200Y-60903162D02*
X61779961Y-60807924D01*
X61779961Y-60807924D02*
X61684723Y-60760305D01*
X61684723Y-60760305D02*
X61494247Y-60712686D01*
X61494247Y-60712686D02*
X61351390Y-60712686D01*
X61351390Y-60712686D02*
X61160914Y-60760305D01*
X61160914Y-60760305D02*
X61065676Y-60807924D01*
X61065676Y-60807924D02*
X60970438Y-60903162D01*
X60970438Y-60903162D02*
X60922819Y-61046019D01*
X60922819Y-61046019D02*
X60922819Y-61141257D01*
X60922819Y-61141257D02*
X60970438Y-61284114D01*
X60970438Y-61284114D02*
X61018057Y-61331733D01*
X60922819Y-62188876D02*
X60922819Y-61998400D01*
X60922819Y-61998400D02*
X60970438Y-61903162D01*
X60970438Y-61903162D02*
X61018057Y-61855543D01*
X61018057Y-61855543D02*
X61160914Y-61760305D01*
X61160914Y-61760305D02*
X61351390Y-61712686D01*
X61351390Y-61712686D02*
X61732342Y-61712686D01*
X61732342Y-61712686D02*
X61827580Y-61760305D01*
X61827580Y-61760305D02*
X61875200Y-61807924D01*
X61875200Y-61807924D02*
X61922819Y-61903162D01*
X61922819Y-61903162D02*
X61922819Y-62093638D01*
X61922819Y-62093638D02*
X61875200Y-62188876D01*
X61875200Y-62188876D02*
X61827580Y-62236495D01*
X61827580Y-62236495D02*
X61732342Y-62284114D01*
X61732342Y-62284114D02*
X61494247Y-62284114D01*
X61494247Y-62284114D02*
X61399009Y-62236495D01*
X61399009Y-62236495D02*
X61351390Y-62188876D01*
X61351390Y-62188876D02*
X61303771Y-62093638D01*
X61303771Y-62093638D02*
X61303771Y-61903162D01*
X61303771Y-61903162D02*
X61351390Y-61807924D01*
X61351390Y-61807924D02*
X61399009Y-61760305D01*
X61399009Y-61760305D02*
X61494247Y-61712686D01*
X63457642Y-53961980D02*
X63505261Y-54009600D01*
X63505261Y-54009600D02*
X63648118Y-54057219D01*
X63648118Y-54057219D02*
X63743356Y-54057219D01*
X63743356Y-54057219D02*
X63886213Y-54009600D01*
X63886213Y-54009600D02*
X63981451Y-53914361D01*
X63981451Y-53914361D02*
X64029070Y-53819123D01*
X64029070Y-53819123D02*
X64076689Y-53628647D01*
X64076689Y-53628647D02*
X64076689Y-53485790D01*
X64076689Y-53485790D02*
X64029070Y-53295314D01*
X64029070Y-53295314D02*
X63981451Y-53200076D01*
X63981451Y-53200076D02*
X63886213Y-53104838D01*
X63886213Y-53104838D02*
X63743356Y-53057219D01*
X63743356Y-53057219D02*
X63648118Y-53057219D01*
X63648118Y-53057219D02*
X63505261Y-53104838D01*
X63505261Y-53104838D02*
X63457642Y-53152457D01*
X63076689Y-53152457D02*
X63029070Y-53104838D01*
X63029070Y-53104838D02*
X62933832Y-53057219D01*
X62933832Y-53057219D02*
X62695737Y-53057219D01*
X62695737Y-53057219D02*
X62600499Y-53104838D01*
X62600499Y-53104838D02*
X62552880Y-53152457D01*
X62552880Y-53152457D02*
X62505261Y-53247695D01*
X62505261Y-53247695D02*
X62505261Y-53342933D01*
X62505261Y-53342933D02*
X62552880Y-53485790D01*
X62552880Y-53485790D02*
X63124308Y-54057219D01*
X63124308Y-54057219D02*
X62505261Y-54057219D01*
X61648118Y-53057219D02*
X61838594Y-53057219D01*
X61838594Y-53057219D02*
X61933832Y-53104838D01*
X61933832Y-53104838D02*
X61981451Y-53152457D01*
X61981451Y-53152457D02*
X62076689Y-53295314D01*
X62076689Y-53295314D02*
X62124308Y-53485790D01*
X62124308Y-53485790D02*
X62124308Y-53866742D01*
X62124308Y-53866742D02*
X62076689Y-53961980D01*
X62076689Y-53961980D02*
X62029070Y-54009600D01*
X62029070Y-54009600D02*
X61933832Y-54057219D01*
X61933832Y-54057219D02*
X61743356Y-54057219D01*
X61743356Y-54057219D02*
X61648118Y-54009600D01*
X61648118Y-54009600D02*
X61600499Y-53961980D01*
X61600499Y-53961980D02*
X61552880Y-53866742D01*
X61552880Y-53866742D02*
X61552880Y-53628647D01*
X61552880Y-53628647D02*
X61600499Y-53533409D01*
X61600499Y-53533409D02*
X61648118Y-53485790D01*
X61648118Y-53485790D02*
X61743356Y-53438171D01*
X61743356Y-53438171D02*
X61933832Y-53438171D01*
X61933832Y-53438171D02*
X62029070Y-53485790D01*
X62029070Y-53485790D02*
X62076689Y-53533409D01*
X62076689Y-53533409D02*
X62124308Y-53628647D01*
X53709219Y-67594495D02*
X54518742Y-67594495D01*
X54518742Y-67594495D02*
X54613980Y-67642114D01*
X54613980Y-67642114D02*
X54661600Y-67689733D01*
X54661600Y-67689733D02*
X54709219Y-67784971D01*
X54709219Y-67784971D02*
X54709219Y-67975447D01*
X54709219Y-67975447D02*
X54661600Y-68070685D01*
X54661600Y-68070685D02*
X54613980Y-68118304D01*
X54613980Y-68118304D02*
X54518742Y-68165923D01*
X54518742Y-68165923D02*
X53709219Y-68165923D01*
X54042552Y-69070685D02*
X54709219Y-69070685D01*
X53661600Y-68832590D02*
X54375885Y-68594495D01*
X54375885Y-68594495D02*
X54375885Y-69213542D01*
X99978380Y-86661942D02*
X100026000Y-86614323D01*
X100026000Y-86614323D02*
X100073619Y-86471466D01*
X100073619Y-86471466D02*
X100073619Y-86376228D01*
X100073619Y-86376228D02*
X100026000Y-86233371D01*
X100026000Y-86233371D02*
X99930761Y-86138133D01*
X99930761Y-86138133D02*
X99835523Y-86090514D01*
X99835523Y-86090514D02*
X99645047Y-86042895D01*
X99645047Y-86042895D02*
X99502190Y-86042895D01*
X99502190Y-86042895D02*
X99311714Y-86090514D01*
X99311714Y-86090514D02*
X99216476Y-86138133D01*
X99216476Y-86138133D02*
X99121238Y-86233371D01*
X99121238Y-86233371D02*
X99073619Y-86376228D01*
X99073619Y-86376228D02*
X99073619Y-86471466D01*
X99073619Y-86471466D02*
X99121238Y-86614323D01*
X99121238Y-86614323D02*
X99168857Y-86661942D01*
X99073619Y-86995276D02*
X99073619Y-87614323D01*
X99073619Y-87614323D02*
X99454571Y-87280990D01*
X99454571Y-87280990D02*
X99454571Y-87423847D01*
X99454571Y-87423847D02*
X99502190Y-87519085D01*
X99502190Y-87519085D02*
X99549809Y-87566704D01*
X99549809Y-87566704D02*
X99645047Y-87614323D01*
X99645047Y-87614323D02*
X99883142Y-87614323D01*
X99883142Y-87614323D02*
X99978380Y-87566704D01*
X99978380Y-87566704D02*
X100026000Y-87519085D01*
X100026000Y-87519085D02*
X100073619Y-87423847D01*
X100073619Y-87423847D02*
X100073619Y-87138133D01*
X100073619Y-87138133D02*
X100026000Y-87042895D01*
X100026000Y-87042895D02*
X99978380Y-86995276D01*
X100073619Y-88566704D02*
X100073619Y-87995276D01*
X100073619Y-88280990D02*
X99073619Y-88280990D01*
X99073619Y-88280990D02*
X99216476Y-88185752D01*
X99216476Y-88185752D02*
X99311714Y-88090514D01*
X99311714Y-88090514D02*
X99359333Y-87995276D01*
X67070266Y-63483580D02*
X67117885Y-63531200D01*
X67117885Y-63531200D02*
X67260742Y-63578819D01*
X67260742Y-63578819D02*
X67355980Y-63578819D01*
X67355980Y-63578819D02*
X67498837Y-63531200D01*
X67498837Y-63531200D02*
X67594075Y-63435961D01*
X67594075Y-63435961D02*
X67641694Y-63340723D01*
X67641694Y-63340723D02*
X67689313Y-63150247D01*
X67689313Y-63150247D02*
X67689313Y-63007390D01*
X67689313Y-63007390D02*
X67641694Y-62816914D01*
X67641694Y-62816914D02*
X67594075Y-62721676D01*
X67594075Y-62721676D02*
X67498837Y-62626438D01*
X67498837Y-62626438D02*
X67355980Y-62578819D01*
X67355980Y-62578819D02*
X67260742Y-62578819D01*
X67260742Y-62578819D02*
X67117885Y-62626438D01*
X67117885Y-62626438D02*
X67070266Y-62674057D01*
X66736932Y-62578819D02*
X66070266Y-62578819D01*
X66070266Y-62578819D02*
X66498837Y-63578819D01*
X61583866Y-59876780D02*
X61631485Y-59924400D01*
X61631485Y-59924400D02*
X61774342Y-59972019D01*
X61774342Y-59972019D02*
X61869580Y-59972019D01*
X61869580Y-59972019D02*
X62012437Y-59924400D01*
X62012437Y-59924400D02*
X62107675Y-59829161D01*
X62107675Y-59829161D02*
X62155294Y-59733923D01*
X62155294Y-59733923D02*
X62202913Y-59543447D01*
X62202913Y-59543447D02*
X62202913Y-59400590D01*
X62202913Y-59400590D02*
X62155294Y-59210114D01*
X62155294Y-59210114D02*
X62107675Y-59114876D01*
X62107675Y-59114876D02*
X62012437Y-59019638D01*
X62012437Y-59019638D02*
X61869580Y-58972019D01*
X61869580Y-58972019D02*
X61774342Y-58972019D01*
X61774342Y-58972019D02*
X61631485Y-59019638D01*
X61631485Y-59019638D02*
X61583866Y-59067257D01*
X61107675Y-59972019D02*
X60917199Y-59972019D01*
X60917199Y-59972019D02*
X60821961Y-59924400D01*
X60821961Y-59924400D02*
X60774342Y-59876780D01*
X60774342Y-59876780D02*
X60679104Y-59733923D01*
X60679104Y-59733923D02*
X60631485Y-59543447D01*
X60631485Y-59543447D02*
X60631485Y-59162495D01*
X60631485Y-59162495D02*
X60679104Y-59067257D01*
X60679104Y-59067257D02*
X60726723Y-59019638D01*
X60726723Y-59019638D02*
X60821961Y-58972019D01*
X60821961Y-58972019D02*
X61012437Y-58972019D01*
X61012437Y-58972019D02*
X61107675Y-59019638D01*
X61107675Y-59019638D02*
X61155294Y-59067257D01*
X61155294Y-59067257D02*
X61202913Y-59162495D01*
X61202913Y-59162495D02*
X61202913Y-59400590D01*
X61202913Y-59400590D02*
X61155294Y-59495828D01*
X61155294Y-59495828D02*
X61107675Y-59543447D01*
X61107675Y-59543447D02*
X61012437Y-59591066D01*
X61012437Y-59591066D02*
X60821961Y-59591066D01*
X60821961Y-59591066D02*
X60726723Y-59543447D01*
X60726723Y-59543447D02*
X60679104Y-59495828D01*
X60679104Y-59495828D02*
X60631485Y-59400590D01*
X96858057Y-59984819D02*
X97191390Y-59508628D01*
X97429485Y-59984819D02*
X97429485Y-58984819D01*
X97429485Y-58984819D02*
X97048533Y-58984819D01*
X97048533Y-58984819D02*
X96953295Y-59032438D01*
X96953295Y-59032438D02*
X96905676Y-59080057D01*
X96905676Y-59080057D02*
X96858057Y-59175295D01*
X96858057Y-59175295D02*
X96858057Y-59318152D01*
X96858057Y-59318152D02*
X96905676Y-59413390D01*
X96905676Y-59413390D02*
X96953295Y-59461009D01*
X96953295Y-59461009D02*
X97048533Y-59508628D01*
X97048533Y-59508628D02*
X97429485Y-59508628D01*
X96477104Y-59080057D02*
X96429485Y-59032438D01*
X96429485Y-59032438D02*
X96334247Y-58984819D01*
X96334247Y-58984819D02*
X96096152Y-58984819D01*
X96096152Y-58984819D02*
X96000914Y-59032438D01*
X96000914Y-59032438D02*
X95953295Y-59080057D01*
X95953295Y-59080057D02*
X95905676Y-59175295D01*
X95905676Y-59175295D02*
X95905676Y-59270533D01*
X95905676Y-59270533D02*
X95953295Y-59413390D01*
X95953295Y-59413390D02*
X96524723Y-59984819D01*
X96524723Y-59984819D02*
X95905676Y-59984819D01*
X95429485Y-59984819D02*
X95239009Y-59984819D01*
X95239009Y-59984819D02*
X95143771Y-59937200D01*
X95143771Y-59937200D02*
X95096152Y-59889580D01*
X95096152Y-59889580D02*
X95000914Y-59746723D01*
X95000914Y-59746723D02*
X94953295Y-59556247D01*
X94953295Y-59556247D02*
X94953295Y-59175295D01*
X94953295Y-59175295D02*
X95000914Y-59080057D01*
X95000914Y-59080057D02*
X95048533Y-59032438D01*
X95048533Y-59032438D02*
X95143771Y-58984819D01*
X95143771Y-58984819D02*
X95334247Y-58984819D01*
X95334247Y-58984819D02*
X95429485Y-59032438D01*
X95429485Y-59032438D02*
X95477104Y-59080057D01*
X95477104Y-59080057D02*
X95524723Y-59175295D01*
X95524723Y-59175295D02*
X95524723Y-59413390D01*
X95524723Y-59413390D02*
X95477104Y-59508628D01*
X95477104Y-59508628D02*
X95429485Y-59556247D01*
X95429485Y-59556247D02*
X95334247Y-59603866D01*
X95334247Y-59603866D02*
X95143771Y-59603866D01*
X95143771Y-59603866D02*
X95048533Y-59556247D01*
X95048533Y-59556247D02*
X95000914Y-59508628D01*
X95000914Y-59508628D02*
X94953295Y-59413390D01*
X47959180Y-63008133D02*
X48006800Y-62960514D01*
X48006800Y-62960514D02*
X48054419Y-62817657D01*
X48054419Y-62817657D02*
X48054419Y-62722419D01*
X48054419Y-62722419D02*
X48006800Y-62579562D01*
X48006800Y-62579562D02*
X47911561Y-62484324D01*
X47911561Y-62484324D02*
X47816323Y-62436705D01*
X47816323Y-62436705D02*
X47625847Y-62389086D01*
X47625847Y-62389086D02*
X47482990Y-62389086D01*
X47482990Y-62389086D02*
X47292514Y-62436705D01*
X47292514Y-62436705D02*
X47197276Y-62484324D01*
X47197276Y-62484324D02*
X47102038Y-62579562D01*
X47102038Y-62579562D02*
X47054419Y-62722419D01*
X47054419Y-62722419D02*
X47054419Y-62817657D01*
X47054419Y-62817657D02*
X47102038Y-62960514D01*
X47102038Y-62960514D02*
X47149657Y-63008133D01*
X48054419Y-63960514D02*
X48054419Y-63389086D01*
X48054419Y-63674800D02*
X47054419Y-63674800D01*
X47054419Y-63674800D02*
X47197276Y-63579562D01*
X47197276Y-63579562D02*
X47292514Y-63484324D01*
X47292514Y-63484324D02*
X47340133Y-63389086D01*
X92827019Y-61129942D02*
X92350828Y-60796609D01*
X92827019Y-60558514D02*
X91827019Y-60558514D01*
X91827019Y-60558514D02*
X91827019Y-60939466D01*
X91827019Y-60939466D02*
X91874638Y-61034704D01*
X91874638Y-61034704D02*
X91922257Y-61082323D01*
X91922257Y-61082323D02*
X92017495Y-61129942D01*
X92017495Y-61129942D02*
X92160352Y-61129942D01*
X92160352Y-61129942D02*
X92255590Y-61082323D01*
X92255590Y-61082323D02*
X92303209Y-61034704D01*
X92303209Y-61034704D02*
X92350828Y-60939466D01*
X92350828Y-60939466D02*
X92350828Y-60558514D01*
X91827019Y-61463276D02*
X91827019Y-62082323D01*
X91827019Y-62082323D02*
X92207971Y-61748990D01*
X92207971Y-61748990D02*
X92207971Y-61891847D01*
X92207971Y-61891847D02*
X92255590Y-61987085D01*
X92255590Y-61987085D02*
X92303209Y-62034704D01*
X92303209Y-62034704D02*
X92398447Y-62082323D01*
X92398447Y-62082323D02*
X92636542Y-62082323D01*
X92636542Y-62082323D02*
X92731780Y-62034704D01*
X92731780Y-62034704D02*
X92779400Y-61987085D01*
X92779400Y-61987085D02*
X92827019Y-61891847D01*
X92827019Y-61891847D02*
X92827019Y-61606133D01*
X92827019Y-61606133D02*
X92779400Y-61510895D01*
X92779400Y-61510895D02*
X92731780Y-61463276D01*
X91827019Y-62701371D02*
X91827019Y-62796609D01*
X91827019Y-62796609D02*
X91874638Y-62891847D01*
X91874638Y-62891847D02*
X91922257Y-62939466D01*
X91922257Y-62939466D02*
X92017495Y-62987085D01*
X92017495Y-62987085D02*
X92207971Y-63034704D01*
X92207971Y-63034704D02*
X92446066Y-63034704D01*
X92446066Y-63034704D02*
X92636542Y-62987085D01*
X92636542Y-62987085D02*
X92731780Y-62939466D01*
X92731780Y-62939466D02*
X92779400Y-62891847D01*
X92779400Y-62891847D02*
X92827019Y-62796609D01*
X92827019Y-62796609D02*
X92827019Y-62701371D01*
X92827019Y-62701371D02*
X92779400Y-62606133D01*
X92779400Y-62606133D02*
X92731780Y-62558514D01*
X92731780Y-62558514D02*
X92636542Y-62510895D01*
X92636542Y-62510895D02*
X92446066Y-62463276D01*
X92446066Y-62463276D02*
X92207971Y-62463276D01*
X92207971Y-62463276D02*
X92017495Y-62510895D01*
X92017495Y-62510895D02*
X91922257Y-62558514D01*
X91922257Y-62558514D02*
X91874638Y-62606133D01*
X91874638Y-62606133D02*
X91827019Y-62701371D01*
X64885866Y-61705580D02*
X64933485Y-61753200D01*
X64933485Y-61753200D02*
X65076342Y-61800819D01*
X65076342Y-61800819D02*
X65171580Y-61800819D01*
X65171580Y-61800819D02*
X65314437Y-61753200D01*
X65314437Y-61753200D02*
X65409675Y-61657961D01*
X65409675Y-61657961D02*
X65457294Y-61562723D01*
X65457294Y-61562723D02*
X65504913Y-61372247D01*
X65504913Y-61372247D02*
X65504913Y-61229390D01*
X65504913Y-61229390D02*
X65457294Y-61038914D01*
X65457294Y-61038914D02*
X65409675Y-60943676D01*
X65409675Y-60943676D02*
X65314437Y-60848438D01*
X65314437Y-60848438D02*
X65171580Y-60800819D01*
X65171580Y-60800819D02*
X65076342Y-60800819D01*
X65076342Y-60800819D02*
X64933485Y-60848438D01*
X64933485Y-60848438D02*
X64885866Y-60896057D01*
X64314437Y-61229390D02*
X64409675Y-61181771D01*
X64409675Y-61181771D02*
X64457294Y-61134152D01*
X64457294Y-61134152D02*
X64504913Y-61038914D01*
X64504913Y-61038914D02*
X64504913Y-60991295D01*
X64504913Y-60991295D02*
X64457294Y-60896057D01*
X64457294Y-60896057D02*
X64409675Y-60848438D01*
X64409675Y-60848438D02*
X64314437Y-60800819D01*
X64314437Y-60800819D02*
X64123961Y-60800819D01*
X64123961Y-60800819D02*
X64028723Y-60848438D01*
X64028723Y-60848438D02*
X63981104Y-60896057D01*
X63981104Y-60896057D02*
X63933485Y-60991295D01*
X63933485Y-60991295D02*
X63933485Y-61038914D01*
X63933485Y-61038914D02*
X63981104Y-61134152D01*
X63981104Y-61134152D02*
X64028723Y-61181771D01*
X64028723Y-61181771D02*
X64123961Y-61229390D01*
X64123961Y-61229390D02*
X64314437Y-61229390D01*
X64314437Y-61229390D02*
X64409675Y-61277009D01*
X64409675Y-61277009D02*
X64457294Y-61324628D01*
X64457294Y-61324628D02*
X64504913Y-61419866D01*
X64504913Y-61419866D02*
X64504913Y-61610342D01*
X64504913Y-61610342D02*
X64457294Y-61705580D01*
X64457294Y-61705580D02*
X64409675Y-61753200D01*
X64409675Y-61753200D02*
X64314437Y-61800819D01*
X64314437Y-61800819D02*
X64123961Y-61800819D01*
X64123961Y-61800819D02*
X64028723Y-61753200D01*
X64028723Y-61753200D02*
X63981104Y-61705580D01*
X63981104Y-61705580D02*
X63933485Y-61610342D01*
X63933485Y-61610342D02*
X63933485Y-61419866D01*
X63933485Y-61419866D02*
X63981104Y-61324628D01*
X63981104Y-61324628D02*
X64028723Y-61277009D01*
X64028723Y-61277009D02*
X64123961Y-61229390D01*
X65129580Y-67053142D02*
X65177200Y-67005523D01*
X65177200Y-67005523D02*
X65224819Y-66862666D01*
X65224819Y-66862666D02*
X65224819Y-66767428D01*
X65224819Y-66767428D02*
X65177200Y-66624571D01*
X65177200Y-66624571D02*
X65081961Y-66529333D01*
X65081961Y-66529333D02*
X64986723Y-66481714D01*
X64986723Y-66481714D02*
X64796247Y-66434095D01*
X64796247Y-66434095D02*
X64653390Y-66434095D01*
X64653390Y-66434095D02*
X64462914Y-66481714D01*
X64462914Y-66481714D02*
X64367676Y-66529333D01*
X64367676Y-66529333D02*
X64272438Y-66624571D01*
X64272438Y-66624571D02*
X64224819Y-66767428D01*
X64224819Y-66767428D02*
X64224819Y-66862666D01*
X64224819Y-66862666D02*
X64272438Y-67005523D01*
X64272438Y-67005523D02*
X64320057Y-67053142D01*
X65224819Y-68005523D02*
X65224819Y-67434095D01*
X65224819Y-67719809D02*
X64224819Y-67719809D01*
X64224819Y-67719809D02*
X64367676Y-67624571D01*
X64367676Y-67624571D02*
X64462914Y-67529333D01*
X64462914Y-67529333D02*
X64510533Y-67434095D01*
X64224819Y-68862666D02*
X64224819Y-68672190D01*
X64224819Y-68672190D02*
X64272438Y-68576952D01*
X64272438Y-68576952D02*
X64320057Y-68529333D01*
X64320057Y-68529333D02*
X64462914Y-68434095D01*
X64462914Y-68434095D02*
X64653390Y-68386476D01*
X64653390Y-68386476D02*
X65034342Y-68386476D01*
X65034342Y-68386476D02*
X65129580Y-68434095D01*
X65129580Y-68434095D02*
X65177200Y-68481714D01*
X65177200Y-68481714D02*
X65224819Y-68576952D01*
X65224819Y-68576952D02*
X65224819Y-68767428D01*
X65224819Y-68767428D02*
X65177200Y-68862666D01*
X65177200Y-68862666D02*
X65129580Y-68910285D01*
X65129580Y-68910285D02*
X65034342Y-68957904D01*
X65034342Y-68957904D02*
X64796247Y-68957904D01*
X64796247Y-68957904D02*
X64701009Y-68910285D01*
X64701009Y-68910285D02*
X64653390Y-68862666D01*
X64653390Y-68862666D02*
X64605771Y-68767428D01*
X64605771Y-68767428D02*
X64605771Y-68576952D01*
X64605771Y-68576952D02*
X64653390Y-68481714D01*
X64653390Y-68481714D02*
X64701009Y-68434095D01*
X64701009Y-68434095D02*
X64796247Y-68386476D01*
X62538780Y-67002342D02*
X62586400Y-66954723D01*
X62586400Y-66954723D02*
X62634019Y-66811866D01*
X62634019Y-66811866D02*
X62634019Y-66716628D01*
X62634019Y-66716628D02*
X62586400Y-66573771D01*
X62586400Y-66573771D02*
X62491161Y-66478533D01*
X62491161Y-66478533D02*
X62395923Y-66430914D01*
X62395923Y-66430914D02*
X62205447Y-66383295D01*
X62205447Y-66383295D02*
X62062590Y-66383295D01*
X62062590Y-66383295D02*
X61872114Y-66430914D01*
X61872114Y-66430914D02*
X61776876Y-66478533D01*
X61776876Y-66478533D02*
X61681638Y-66573771D01*
X61681638Y-66573771D02*
X61634019Y-66716628D01*
X61634019Y-66716628D02*
X61634019Y-66811866D01*
X61634019Y-66811866D02*
X61681638Y-66954723D01*
X61681638Y-66954723D02*
X61729257Y-67002342D01*
X62634019Y-67954723D02*
X62634019Y-67383295D01*
X62634019Y-67669009D02*
X61634019Y-67669009D01*
X61634019Y-67669009D02*
X61776876Y-67573771D01*
X61776876Y-67573771D02*
X61872114Y-67478533D01*
X61872114Y-67478533D02*
X61919733Y-67383295D01*
X61967352Y-68811866D02*
X62634019Y-68811866D01*
X61586400Y-68573771D02*
X62300685Y-68335676D01*
X62300685Y-68335676D02*
X62300685Y-68954723D01*
X66297980Y-67053142D02*
X66345600Y-67005523D01*
X66345600Y-67005523D02*
X66393219Y-66862666D01*
X66393219Y-66862666D02*
X66393219Y-66767428D01*
X66393219Y-66767428D02*
X66345600Y-66624571D01*
X66345600Y-66624571D02*
X66250361Y-66529333D01*
X66250361Y-66529333D02*
X66155123Y-66481714D01*
X66155123Y-66481714D02*
X65964647Y-66434095D01*
X65964647Y-66434095D02*
X65821790Y-66434095D01*
X65821790Y-66434095D02*
X65631314Y-66481714D01*
X65631314Y-66481714D02*
X65536076Y-66529333D01*
X65536076Y-66529333D02*
X65440838Y-66624571D01*
X65440838Y-66624571D02*
X65393219Y-66767428D01*
X65393219Y-66767428D02*
X65393219Y-66862666D01*
X65393219Y-66862666D02*
X65440838Y-67005523D01*
X65440838Y-67005523D02*
X65488457Y-67053142D01*
X66393219Y-68005523D02*
X66393219Y-67434095D01*
X66393219Y-67719809D02*
X65393219Y-67719809D01*
X65393219Y-67719809D02*
X65536076Y-67624571D01*
X65536076Y-67624571D02*
X65631314Y-67529333D01*
X65631314Y-67529333D02*
X65678933Y-67434095D01*
X65393219Y-68338857D02*
X65393219Y-69005523D01*
X65393219Y-69005523D02*
X66393219Y-68576952D01*
X108987894Y-46738618D02*
X108987894Y-45738618D01*
X108987894Y-45738618D02*
X108749799Y-45738618D01*
X108749799Y-45738618D02*
X108606942Y-45786237D01*
X108606942Y-45786237D02*
X108511704Y-45881475D01*
X108511704Y-45881475D02*
X108464085Y-45976713D01*
X108464085Y-45976713D02*
X108416466Y-46167189D01*
X108416466Y-46167189D02*
X108416466Y-46310046D01*
X108416466Y-46310046D02*
X108464085Y-46500522D01*
X108464085Y-46500522D02*
X108511704Y-46595760D01*
X108511704Y-46595760D02*
X108606942Y-46690999D01*
X108606942Y-46690999D02*
X108749799Y-46738618D01*
X108749799Y-46738618D02*
X108987894Y-46738618D01*
X108083132Y-45738618D02*
X107464085Y-45738618D01*
X107464085Y-45738618D02*
X107797418Y-46119570D01*
X107797418Y-46119570D02*
X107654561Y-46119570D01*
X107654561Y-46119570D02*
X107559323Y-46167189D01*
X107559323Y-46167189D02*
X107511704Y-46214808D01*
X107511704Y-46214808D02*
X107464085Y-46310046D01*
X107464085Y-46310046D02*
X107464085Y-46548141D01*
X107464085Y-46548141D02*
X107511704Y-46643379D01*
X107511704Y-46643379D02*
X107559323Y-46690999D01*
X107559323Y-46690999D02*
X107654561Y-46738618D01*
X107654561Y-46738618D02*
X107940275Y-46738618D01*
X107940275Y-46738618D02*
X108035513Y-46690999D01*
X108035513Y-46690999D02*
X108083132Y-46643379D01*
X47734819Y-67374905D02*
X46734819Y-67374905D01*
X46734819Y-67374905D02*
X46734819Y-67613000D01*
X46734819Y-67613000D02*
X46782438Y-67755857D01*
X46782438Y-67755857D02*
X46877676Y-67851095D01*
X46877676Y-67851095D02*
X46972914Y-67898714D01*
X46972914Y-67898714D02*
X47163390Y-67946333D01*
X47163390Y-67946333D02*
X47306247Y-67946333D01*
X47306247Y-67946333D02*
X47496723Y-67898714D01*
X47496723Y-67898714D02*
X47591961Y-67851095D01*
X47591961Y-67851095D02*
X47687200Y-67755857D01*
X47687200Y-67755857D02*
X47734819Y-67613000D01*
X47734819Y-67613000D02*
X47734819Y-67374905D01*
X46830057Y-68327286D02*
X46782438Y-68374905D01*
X46782438Y-68374905D02*
X46734819Y-68470143D01*
X46734819Y-68470143D02*
X46734819Y-68708238D01*
X46734819Y-68708238D02*
X46782438Y-68803476D01*
X46782438Y-68803476D02*
X46830057Y-68851095D01*
X46830057Y-68851095D02*
X46925295Y-68898714D01*
X46925295Y-68898714D02*
X47020533Y-68898714D01*
X47020533Y-68898714D02*
X47163390Y-68851095D01*
X47163390Y-68851095D02*
X47734819Y-68279667D01*
X47734819Y-68279667D02*
X47734819Y-68898714D01*
X76559580Y-86661942D02*
X76607200Y-86614323D01*
X76607200Y-86614323D02*
X76654819Y-86471466D01*
X76654819Y-86471466D02*
X76654819Y-86376228D01*
X76654819Y-86376228D02*
X76607200Y-86233371D01*
X76607200Y-86233371D02*
X76511961Y-86138133D01*
X76511961Y-86138133D02*
X76416723Y-86090514D01*
X76416723Y-86090514D02*
X76226247Y-86042895D01*
X76226247Y-86042895D02*
X76083390Y-86042895D01*
X76083390Y-86042895D02*
X75892914Y-86090514D01*
X75892914Y-86090514D02*
X75797676Y-86138133D01*
X75797676Y-86138133D02*
X75702438Y-86233371D01*
X75702438Y-86233371D02*
X75654819Y-86376228D01*
X75654819Y-86376228D02*
X75654819Y-86471466D01*
X75654819Y-86471466D02*
X75702438Y-86614323D01*
X75702438Y-86614323D02*
X75750057Y-86661942D01*
X75654819Y-86995276D02*
X75654819Y-87614323D01*
X75654819Y-87614323D02*
X76035771Y-87280990D01*
X76035771Y-87280990D02*
X76035771Y-87423847D01*
X76035771Y-87423847D02*
X76083390Y-87519085D01*
X76083390Y-87519085D02*
X76131009Y-87566704D01*
X76131009Y-87566704D02*
X76226247Y-87614323D01*
X76226247Y-87614323D02*
X76464342Y-87614323D01*
X76464342Y-87614323D02*
X76559580Y-87566704D01*
X76559580Y-87566704D02*
X76607200Y-87519085D01*
X76607200Y-87519085D02*
X76654819Y-87423847D01*
X76654819Y-87423847D02*
X76654819Y-87138133D01*
X76654819Y-87138133D02*
X76607200Y-87042895D01*
X76607200Y-87042895D02*
X76559580Y-86995276D01*
X75654819Y-88233371D02*
X75654819Y-88328609D01*
X75654819Y-88328609D02*
X75702438Y-88423847D01*
X75702438Y-88423847D02*
X75750057Y-88471466D01*
X75750057Y-88471466D02*
X75845295Y-88519085D01*
X75845295Y-88519085D02*
X76035771Y-88566704D01*
X76035771Y-88566704D02*
X76273866Y-88566704D01*
X76273866Y-88566704D02*
X76464342Y-88519085D01*
X76464342Y-88519085D02*
X76559580Y-88471466D01*
X76559580Y-88471466D02*
X76607200Y-88423847D01*
X76607200Y-88423847D02*
X76654819Y-88328609D01*
X76654819Y-88328609D02*
X76654819Y-88233371D01*
X76654819Y-88233371D02*
X76607200Y-88138133D01*
X76607200Y-88138133D02*
X76559580Y-88090514D01*
X76559580Y-88090514D02*
X76464342Y-88042895D01*
X76464342Y-88042895D02*
X76273866Y-87995276D01*
X76273866Y-87995276D02*
X76035771Y-87995276D01*
X76035771Y-87995276D02*
X75845295Y-88042895D01*
X75845295Y-88042895D02*
X75750057Y-88090514D01*
X75750057Y-88090514D02*
X75702438Y-88138133D01*
X75702438Y-88138133D02*
X75654819Y-88233371D01*
X56595180Y-86560342D02*
X56642800Y-86512723D01*
X56642800Y-86512723D02*
X56690419Y-86369866D01*
X56690419Y-86369866D02*
X56690419Y-86274628D01*
X56690419Y-86274628D02*
X56642800Y-86131771D01*
X56642800Y-86131771D02*
X56547561Y-86036533D01*
X56547561Y-86036533D02*
X56452323Y-85988914D01*
X56452323Y-85988914D02*
X56261847Y-85941295D01*
X56261847Y-85941295D02*
X56118990Y-85941295D01*
X56118990Y-85941295D02*
X55928514Y-85988914D01*
X55928514Y-85988914D02*
X55833276Y-86036533D01*
X55833276Y-86036533D02*
X55738038Y-86131771D01*
X55738038Y-86131771D02*
X55690419Y-86274628D01*
X55690419Y-86274628D02*
X55690419Y-86369866D01*
X55690419Y-86369866D02*
X55738038Y-86512723D01*
X55738038Y-86512723D02*
X55785657Y-86560342D01*
X55785657Y-86941295D02*
X55738038Y-86988914D01*
X55738038Y-86988914D02*
X55690419Y-87084152D01*
X55690419Y-87084152D02*
X55690419Y-87322247D01*
X55690419Y-87322247D02*
X55738038Y-87417485D01*
X55738038Y-87417485D02*
X55785657Y-87465104D01*
X55785657Y-87465104D02*
X55880895Y-87512723D01*
X55880895Y-87512723D02*
X55976133Y-87512723D01*
X55976133Y-87512723D02*
X56118990Y-87465104D01*
X56118990Y-87465104D02*
X56690419Y-86893676D01*
X56690419Y-86893676D02*
X56690419Y-87512723D01*
X55690419Y-87846057D02*
X55690419Y-88465104D01*
X55690419Y-88465104D02*
X56071371Y-88131771D01*
X56071371Y-88131771D02*
X56071371Y-88274628D01*
X56071371Y-88274628D02*
X56118990Y-88369866D01*
X56118990Y-88369866D02*
X56166609Y-88417485D01*
X56166609Y-88417485D02*
X56261847Y-88465104D01*
X56261847Y-88465104D02*
X56499942Y-88465104D01*
X56499942Y-88465104D02*
X56595180Y-88417485D01*
X56595180Y-88417485D02*
X56642800Y-88369866D01*
X56642800Y-88369866D02*
X56690419Y-88274628D01*
X56690419Y-88274628D02*
X56690419Y-87988914D01*
X56690419Y-87988914D02*
X56642800Y-87893676D01*
X56642800Y-87893676D02*
X56595180Y-87846057D01*
X52121181Y-65400932D02*
X52168801Y-65353313D01*
X52168801Y-65353313D02*
X52216420Y-65210456D01*
X52216420Y-65210456D02*
X52216420Y-65115218D01*
X52216420Y-65115218D02*
X52168801Y-64972361D01*
X52168801Y-64972361D02*
X52073562Y-64877123D01*
X52073562Y-64877123D02*
X51978324Y-64829504D01*
X51978324Y-64829504D02*
X51787848Y-64781885D01*
X51787848Y-64781885D02*
X51644991Y-64781885D01*
X51644991Y-64781885D02*
X51454515Y-64829504D01*
X51454515Y-64829504D02*
X51359277Y-64877123D01*
X51359277Y-64877123D02*
X51264039Y-64972361D01*
X51264039Y-64972361D02*
X51216420Y-65115218D01*
X51216420Y-65115218D02*
X51216420Y-65210456D01*
X51216420Y-65210456D02*
X51264039Y-65353313D01*
X51264039Y-65353313D02*
X51311658Y-65400932D01*
X51311658Y-65781885D02*
X51264039Y-65829504D01*
X51264039Y-65829504D02*
X51216420Y-65924742D01*
X51216420Y-65924742D02*
X51216420Y-66162837D01*
X51216420Y-66162837D02*
X51264039Y-66258075D01*
X51264039Y-66258075D02*
X51311658Y-66305694D01*
X51311658Y-66305694D02*
X51406896Y-66353313D01*
X51406896Y-66353313D02*
X51502134Y-66353313D01*
X51502134Y-66353313D02*
X51644991Y-66305694D01*
X51644991Y-66305694D02*
X52216420Y-65734266D01*
X52216420Y-65734266D02*
X52216420Y-66353313D01*
X61456004Y-56139342D02*
X60979813Y-55806009D01*
X61456004Y-55567914D02*
X60456004Y-55567914D01*
X60456004Y-55567914D02*
X60456004Y-55948866D01*
X60456004Y-55948866D02*
X60503623Y-56044104D01*
X60503623Y-56044104D02*
X60551242Y-56091723D01*
X60551242Y-56091723D02*
X60646480Y-56139342D01*
X60646480Y-56139342D02*
X60789337Y-56139342D01*
X60789337Y-56139342D02*
X60884575Y-56091723D01*
X60884575Y-56091723D02*
X60932194Y-56044104D01*
X60932194Y-56044104D02*
X60979813Y-55948866D01*
X60979813Y-55948866D02*
X60979813Y-55567914D01*
X60456004Y-56472676D02*
X60456004Y-57091723D01*
X60456004Y-57091723D02*
X60836956Y-56758390D01*
X60836956Y-56758390D02*
X60836956Y-56901247D01*
X60836956Y-56901247D02*
X60884575Y-56996485D01*
X60884575Y-56996485D02*
X60932194Y-57044104D01*
X60932194Y-57044104D02*
X61027432Y-57091723D01*
X61027432Y-57091723D02*
X61265527Y-57091723D01*
X61265527Y-57091723D02*
X61360765Y-57044104D01*
X61360765Y-57044104D02*
X61408385Y-56996485D01*
X61408385Y-56996485D02*
X61456004Y-56901247D01*
X61456004Y-56901247D02*
X61456004Y-56615533D01*
X61456004Y-56615533D02*
X61408385Y-56520295D01*
X61408385Y-56520295D02*
X61360765Y-56472676D01*
X60456004Y-57425057D02*
X60456004Y-58044104D01*
X60456004Y-58044104D02*
X60836956Y-57710771D01*
X60836956Y-57710771D02*
X60836956Y-57853628D01*
X60836956Y-57853628D02*
X60884575Y-57948866D01*
X60884575Y-57948866D02*
X60932194Y-57996485D01*
X60932194Y-57996485D02*
X61027432Y-58044104D01*
X61027432Y-58044104D02*
X61265527Y-58044104D01*
X61265527Y-58044104D02*
X61360765Y-57996485D01*
X61360765Y-57996485D02*
X61408385Y-57948866D01*
X61408385Y-57948866D02*
X61456004Y-57853628D01*
X61456004Y-57853628D02*
X61456004Y-57567914D01*
X61456004Y-57567914D02*
X61408385Y-57472676D01*
X61408385Y-57472676D02*
X61360765Y-57425057D01*
X67771180Y-67053142D02*
X67818800Y-67005523D01*
X67818800Y-67005523D02*
X67866419Y-66862666D01*
X67866419Y-66862666D02*
X67866419Y-66767428D01*
X67866419Y-66767428D02*
X67818800Y-66624571D01*
X67818800Y-66624571D02*
X67723561Y-66529333D01*
X67723561Y-66529333D02*
X67628323Y-66481714D01*
X67628323Y-66481714D02*
X67437847Y-66434095D01*
X67437847Y-66434095D02*
X67294990Y-66434095D01*
X67294990Y-66434095D02*
X67104514Y-66481714D01*
X67104514Y-66481714D02*
X67009276Y-66529333D01*
X67009276Y-66529333D02*
X66914038Y-66624571D01*
X66914038Y-66624571D02*
X66866419Y-66767428D01*
X66866419Y-66767428D02*
X66866419Y-66862666D01*
X66866419Y-66862666D02*
X66914038Y-67005523D01*
X66914038Y-67005523D02*
X66961657Y-67053142D01*
X67866419Y-68005523D02*
X67866419Y-67434095D01*
X67866419Y-67719809D02*
X66866419Y-67719809D01*
X66866419Y-67719809D02*
X67009276Y-67624571D01*
X67009276Y-67624571D02*
X67104514Y-67529333D01*
X67104514Y-67529333D02*
X67152133Y-67434095D01*
X67866419Y-68481714D02*
X67866419Y-68672190D01*
X67866419Y-68672190D02*
X67818800Y-68767428D01*
X67818800Y-68767428D02*
X67771180Y-68815047D01*
X67771180Y-68815047D02*
X67628323Y-68910285D01*
X67628323Y-68910285D02*
X67437847Y-68957904D01*
X67437847Y-68957904D02*
X67056895Y-68957904D01*
X67056895Y-68957904D02*
X66961657Y-68910285D01*
X66961657Y-68910285D02*
X66914038Y-68862666D01*
X66914038Y-68862666D02*
X66866419Y-68767428D01*
X66866419Y-68767428D02*
X66866419Y-68576952D01*
X66866419Y-68576952D02*
X66914038Y-68481714D01*
X66914038Y-68481714D02*
X66961657Y-68434095D01*
X66961657Y-68434095D02*
X67056895Y-68386476D01*
X67056895Y-68386476D02*
X67294990Y-68386476D01*
X67294990Y-68386476D02*
X67390228Y-68434095D01*
X67390228Y-68434095D02*
X67437847Y-68481714D01*
X67437847Y-68481714D02*
X67485466Y-68576952D01*
X67485466Y-68576952D02*
X67485466Y-68767428D01*
X67485466Y-68767428D02*
X67437847Y-68862666D01*
X67437847Y-68862666D02*
X67390228Y-68910285D01*
X67390228Y-68910285D02*
X67294990Y-68957904D01*
X41816357Y-73218219D02*
X42149690Y-72742028D01*
X42387785Y-73218219D02*
X42387785Y-72218219D01*
X42387785Y-72218219D02*
X42006833Y-72218219D01*
X42006833Y-72218219D02*
X41911595Y-72265838D01*
X41911595Y-72265838D02*
X41863976Y-72313457D01*
X41863976Y-72313457D02*
X41816357Y-72408695D01*
X41816357Y-72408695D02*
X41816357Y-72551552D01*
X41816357Y-72551552D02*
X41863976Y-72646790D01*
X41863976Y-72646790D02*
X41911595Y-72694409D01*
X41911595Y-72694409D02*
X42006833Y-72742028D01*
X42006833Y-72742028D02*
X42387785Y-72742028D01*
X40863976Y-73218219D02*
X41435404Y-73218219D01*
X41149690Y-73218219D02*
X41149690Y-72218219D01*
X41149690Y-72218219D02*
X41244928Y-72361076D01*
X41244928Y-72361076D02*
X41340166Y-72456314D01*
X41340166Y-72456314D02*
X41435404Y-72503933D01*
X40006833Y-72551552D02*
X40006833Y-73218219D01*
X40244928Y-72170600D02*
X40483023Y-72884885D01*
X40483023Y-72884885D02*
X39863976Y-72884885D01*
X84874804Y-44061142D02*
X84398613Y-43727809D01*
X84874804Y-43489714D02*
X83874804Y-43489714D01*
X83874804Y-43489714D02*
X83874804Y-43870666D01*
X83874804Y-43870666D02*
X83922423Y-43965904D01*
X83922423Y-43965904D02*
X83970042Y-44013523D01*
X83970042Y-44013523D02*
X84065280Y-44061142D01*
X84065280Y-44061142D02*
X84208137Y-44061142D01*
X84208137Y-44061142D02*
X84303375Y-44013523D01*
X84303375Y-44013523D02*
X84350994Y-43965904D01*
X84350994Y-43965904D02*
X84398613Y-43870666D01*
X84398613Y-43870666D02*
X84398613Y-43489714D01*
X84874804Y-45013523D02*
X84874804Y-44442095D01*
X84874804Y-44727809D02*
X83874804Y-44727809D01*
X83874804Y-44727809D02*
X84017661Y-44632571D01*
X84017661Y-44632571D02*
X84112899Y-44537333D01*
X84112899Y-44537333D02*
X84160518Y-44442095D01*
X83874804Y-45632571D02*
X83874804Y-45727809D01*
X83874804Y-45727809D02*
X83922423Y-45823047D01*
X83922423Y-45823047D02*
X83970042Y-45870666D01*
X83970042Y-45870666D02*
X84065280Y-45918285D01*
X84065280Y-45918285D02*
X84255756Y-45965904D01*
X84255756Y-45965904D02*
X84493851Y-45965904D01*
X84493851Y-45965904D02*
X84684327Y-45918285D01*
X84684327Y-45918285D02*
X84779565Y-45870666D01*
X84779565Y-45870666D02*
X84827185Y-45823047D01*
X84827185Y-45823047D02*
X84874804Y-45727809D01*
X84874804Y-45727809D02*
X84874804Y-45632571D01*
X84874804Y-45632571D02*
X84827185Y-45537333D01*
X84827185Y-45537333D02*
X84779565Y-45489714D01*
X84779565Y-45489714D02*
X84684327Y-45442095D01*
X84684327Y-45442095D02*
X84493851Y-45394476D01*
X84493851Y-45394476D02*
X84255756Y-45394476D01*
X84255756Y-45394476D02*
X84065280Y-45442095D01*
X84065280Y-45442095D02*
X83970042Y-45489714D01*
X83970042Y-45489714D02*
X83922423Y-45537333D01*
X83922423Y-45537333D02*
X83874804Y-45632571D01*
X68163619Y-55407742D02*
X67687428Y-55074409D01*
X68163619Y-54836314D02*
X67163619Y-54836314D01*
X67163619Y-54836314D02*
X67163619Y-55217266D01*
X67163619Y-55217266D02*
X67211238Y-55312504D01*
X67211238Y-55312504D02*
X67258857Y-55360123D01*
X67258857Y-55360123D02*
X67354095Y-55407742D01*
X67354095Y-55407742D02*
X67496952Y-55407742D01*
X67496952Y-55407742D02*
X67592190Y-55360123D01*
X67592190Y-55360123D02*
X67639809Y-55312504D01*
X67639809Y-55312504D02*
X67687428Y-55217266D01*
X67687428Y-55217266D02*
X67687428Y-54836314D01*
X67163619Y-55741076D02*
X67163619Y-56360123D01*
X67163619Y-56360123D02*
X67544571Y-56026790D01*
X67544571Y-56026790D02*
X67544571Y-56169647D01*
X67544571Y-56169647D02*
X67592190Y-56264885D01*
X67592190Y-56264885D02*
X67639809Y-56312504D01*
X67639809Y-56312504D02*
X67735047Y-56360123D01*
X67735047Y-56360123D02*
X67973142Y-56360123D01*
X67973142Y-56360123D02*
X68068380Y-56312504D01*
X68068380Y-56312504D02*
X68116000Y-56264885D01*
X68116000Y-56264885D02*
X68163619Y-56169647D01*
X68163619Y-56169647D02*
X68163619Y-55883933D01*
X68163619Y-55883933D02*
X68116000Y-55788695D01*
X68116000Y-55788695D02*
X68068380Y-55741076D01*
X67496952Y-57217266D02*
X68163619Y-57217266D01*
X67116000Y-56979171D02*
X67830285Y-56741076D01*
X67830285Y-56741076D02*
X67830285Y-57360123D01*
X41816357Y-70271819D02*
X42149690Y-69795628D01*
X42387785Y-70271819D02*
X42387785Y-69271819D01*
X42387785Y-69271819D02*
X42006833Y-69271819D01*
X42006833Y-69271819D02*
X41911595Y-69319438D01*
X41911595Y-69319438D02*
X41863976Y-69367057D01*
X41863976Y-69367057D02*
X41816357Y-69462295D01*
X41816357Y-69462295D02*
X41816357Y-69605152D01*
X41816357Y-69605152D02*
X41863976Y-69700390D01*
X41863976Y-69700390D02*
X41911595Y-69748009D01*
X41911595Y-69748009D02*
X42006833Y-69795628D01*
X42006833Y-69795628D02*
X42387785Y-69795628D01*
X40863976Y-70271819D02*
X41435404Y-70271819D01*
X41149690Y-70271819D02*
X41149690Y-69271819D01*
X41149690Y-69271819D02*
X41244928Y-69414676D01*
X41244928Y-69414676D02*
X41340166Y-69509914D01*
X41340166Y-69509914D02*
X41435404Y-69557533D01*
X40530642Y-69271819D02*
X39911595Y-69271819D01*
X39911595Y-69271819D02*
X40244928Y-69652771D01*
X40244928Y-69652771D02*
X40102071Y-69652771D01*
X40102071Y-69652771D02*
X40006833Y-69700390D01*
X40006833Y-69700390D02*
X39959214Y-69748009D01*
X39959214Y-69748009D02*
X39911595Y-69843247D01*
X39911595Y-69843247D02*
X39911595Y-70081342D01*
X39911595Y-70081342D02*
X39959214Y-70176580D01*
X39959214Y-70176580D02*
X40006833Y-70224200D01*
X40006833Y-70224200D02*
X40102071Y-70271819D01*
X40102071Y-70271819D02*
X40387785Y-70271819D01*
X40387785Y-70271819D02*
X40483023Y-70224200D01*
X40483023Y-70224200D02*
X40530642Y-70176580D01*
X63961180Y-67053142D02*
X64008800Y-67005523D01*
X64008800Y-67005523D02*
X64056419Y-66862666D01*
X64056419Y-66862666D02*
X64056419Y-66767428D01*
X64056419Y-66767428D02*
X64008800Y-66624571D01*
X64008800Y-66624571D02*
X63913561Y-66529333D01*
X63913561Y-66529333D02*
X63818323Y-66481714D01*
X63818323Y-66481714D02*
X63627847Y-66434095D01*
X63627847Y-66434095D02*
X63484990Y-66434095D01*
X63484990Y-66434095D02*
X63294514Y-66481714D01*
X63294514Y-66481714D02*
X63199276Y-66529333D01*
X63199276Y-66529333D02*
X63104038Y-66624571D01*
X63104038Y-66624571D02*
X63056419Y-66767428D01*
X63056419Y-66767428D02*
X63056419Y-66862666D01*
X63056419Y-66862666D02*
X63104038Y-67005523D01*
X63104038Y-67005523D02*
X63151657Y-67053142D01*
X64056419Y-68005523D02*
X64056419Y-67434095D01*
X64056419Y-67719809D02*
X63056419Y-67719809D01*
X63056419Y-67719809D02*
X63199276Y-67624571D01*
X63199276Y-67624571D02*
X63294514Y-67529333D01*
X63294514Y-67529333D02*
X63342133Y-67434095D01*
X63056419Y-68910285D02*
X63056419Y-68434095D01*
X63056419Y-68434095D02*
X63532609Y-68386476D01*
X63532609Y-68386476D02*
X63484990Y-68434095D01*
X63484990Y-68434095D02*
X63437371Y-68529333D01*
X63437371Y-68529333D02*
X63437371Y-68767428D01*
X63437371Y-68767428D02*
X63484990Y-68862666D01*
X63484990Y-68862666D02*
X63532609Y-68910285D01*
X63532609Y-68910285D02*
X63627847Y-68957904D01*
X63627847Y-68957904D02*
X63865942Y-68957904D01*
X63865942Y-68957904D02*
X63961180Y-68910285D01*
X63961180Y-68910285D02*
X64008800Y-68862666D01*
X64008800Y-68862666D02*
X64056419Y-68767428D01*
X64056419Y-68767428D02*
X64056419Y-68529333D01*
X64056419Y-68529333D02*
X64008800Y-68434095D01*
X64008800Y-68434095D02*
X63961180Y-68386476D01*
X54508304Y-59378419D02*
X54508304Y-60187942D01*
X54508304Y-60187942D02*
X54460685Y-60283180D01*
X54460685Y-60283180D02*
X54413066Y-60330800D01*
X54413066Y-60330800D02*
X54317828Y-60378419D01*
X54317828Y-60378419D02*
X54127352Y-60378419D01*
X54127352Y-60378419D02*
X54032114Y-60330800D01*
X54032114Y-60330800D02*
X53984495Y-60283180D01*
X53984495Y-60283180D02*
X53936876Y-60187942D01*
X53936876Y-60187942D02*
X53936876Y-59378419D01*
X53508304Y-59473657D02*
X53460685Y-59426038D01*
X53460685Y-59426038D02*
X53365447Y-59378419D01*
X53365447Y-59378419D02*
X53127352Y-59378419D01*
X53127352Y-59378419D02*
X53032114Y-59426038D01*
X53032114Y-59426038D02*
X52984495Y-59473657D01*
X52984495Y-59473657D02*
X52936876Y-59568895D01*
X52936876Y-59568895D02*
X52936876Y-59664133D01*
X52936876Y-59664133D02*
X52984495Y-59806990D01*
X52984495Y-59806990D02*
X53555923Y-60378419D01*
X53555923Y-60378419D02*
X52936876Y-60378419D01*
X58422804Y-53870075D02*
X57946613Y-53536742D01*
X58422804Y-53298647D02*
X57422804Y-53298647D01*
X57422804Y-53298647D02*
X57422804Y-53679599D01*
X57422804Y-53679599D02*
X57470423Y-53774837D01*
X57470423Y-53774837D02*
X57518042Y-53822456D01*
X57518042Y-53822456D02*
X57613280Y-53870075D01*
X57613280Y-53870075D02*
X57756137Y-53870075D01*
X57756137Y-53870075D02*
X57851375Y-53822456D01*
X57851375Y-53822456D02*
X57898994Y-53774837D01*
X57898994Y-53774837D02*
X57946613Y-53679599D01*
X57946613Y-53679599D02*
X57946613Y-53298647D01*
X57422804Y-54203409D02*
X57422804Y-54822456D01*
X57422804Y-54822456D02*
X57803756Y-54489123D01*
X57803756Y-54489123D02*
X57803756Y-54631980D01*
X57803756Y-54631980D02*
X57851375Y-54727218D01*
X57851375Y-54727218D02*
X57898994Y-54774837D01*
X57898994Y-54774837D02*
X57994232Y-54822456D01*
X57994232Y-54822456D02*
X58232327Y-54822456D01*
X58232327Y-54822456D02*
X58327565Y-54774837D01*
X58327565Y-54774837D02*
X58375185Y-54727218D01*
X58375185Y-54727218D02*
X58422804Y-54631980D01*
X58422804Y-54631980D02*
X58422804Y-54346266D01*
X58422804Y-54346266D02*
X58375185Y-54251028D01*
X58375185Y-54251028D02*
X58327565Y-54203409D01*
X58422804Y-55774837D02*
X58422804Y-55203409D01*
X58422804Y-55489123D02*
X57422804Y-55489123D01*
X57422804Y-55489123D02*
X57565661Y-55393885D01*
X57565661Y-55393885D02*
X57660899Y-55298647D01*
X57660899Y-55298647D02*
X57708518Y-55203409D01*
X80166380Y-86661942D02*
X80214000Y-86614323D01*
X80214000Y-86614323D02*
X80261619Y-86471466D01*
X80261619Y-86471466D02*
X80261619Y-86376228D01*
X80261619Y-86376228D02*
X80214000Y-86233371D01*
X80214000Y-86233371D02*
X80118761Y-86138133D01*
X80118761Y-86138133D02*
X80023523Y-86090514D01*
X80023523Y-86090514D02*
X79833047Y-86042895D01*
X79833047Y-86042895D02*
X79690190Y-86042895D01*
X79690190Y-86042895D02*
X79499714Y-86090514D01*
X79499714Y-86090514D02*
X79404476Y-86138133D01*
X79404476Y-86138133D02*
X79309238Y-86233371D01*
X79309238Y-86233371D02*
X79261619Y-86376228D01*
X79261619Y-86376228D02*
X79261619Y-86471466D01*
X79261619Y-86471466D02*
X79309238Y-86614323D01*
X79309238Y-86614323D02*
X79356857Y-86661942D01*
X79356857Y-87042895D02*
X79309238Y-87090514D01*
X79309238Y-87090514D02*
X79261619Y-87185752D01*
X79261619Y-87185752D02*
X79261619Y-87423847D01*
X79261619Y-87423847D02*
X79309238Y-87519085D01*
X79309238Y-87519085D02*
X79356857Y-87566704D01*
X79356857Y-87566704D02*
X79452095Y-87614323D01*
X79452095Y-87614323D02*
X79547333Y-87614323D01*
X79547333Y-87614323D02*
X79690190Y-87566704D01*
X79690190Y-87566704D02*
X80261619Y-86995276D01*
X80261619Y-86995276D02*
X80261619Y-87614323D01*
X80261619Y-88090514D02*
X80261619Y-88280990D01*
X80261619Y-88280990D02*
X80214000Y-88376228D01*
X80214000Y-88376228D02*
X80166380Y-88423847D01*
X80166380Y-88423847D02*
X80023523Y-88519085D01*
X80023523Y-88519085D02*
X79833047Y-88566704D01*
X79833047Y-88566704D02*
X79452095Y-88566704D01*
X79452095Y-88566704D02*
X79356857Y-88519085D01*
X79356857Y-88519085D02*
X79309238Y-88471466D01*
X79309238Y-88471466D02*
X79261619Y-88376228D01*
X79261619Y-88376228D02*
X79261619Y-88185752D01*
X79261619Y-88185752D02*
X79309238Y-88090514D01*
X79309238Y-88090514D02*
X79356857Y-88042895D01*
X79356857Y-88042895D02*
X79452095Y-87995276D01*
X79452095Y-87995276D02*
X79690190Y-87995276D01*
X79690190Y-87995276D02*
X79785428Y-88042895D01*
X79785428Y-88042895D02*
X79833047Y-88090514D01*
X79833047Y-88090514D02*
X79880666Y-88185752D01*
X79880666Y-88185752D02*
X79880666Y-88376228D01*
X79880666Y-88376228D02*
X79833047Y-88471466D01*
X79833047Y-88471466D02*
X79785428Y-88519085D01*
X79785428Y-88519085D02*
X79690190Y-88566704D01*
X61217980Y-67002342D02*
X61265600Y-66954723D01*
X61265600Y-66954723D02*
X61313219Y-66811866D01*
X61313219Y-66811866D02*
X61313219Y-66716628D01*
X61313219Y-66716628D02*
X61265600Y-66573771D01*
X61265600Y-66573771D02*
X61170361Y-66478533D01*
X61170361Y-66478533D02*
X61075123Y-66430914D01*
X61075123Y-66430914D02*
X60884647Y-66383295D01*
X60884647Y-66383295D02*
X60741790Y-66383295D01*
X60741790Y-66383295D02*
X60551314Y-66430914D01*
X60551314Y-66430914D02*
X60456076Y-66478533D01*
X60456076Y-66478533D02*
X60360838Y-66573771D01*
X60360838Y-66573771D02*
X60313219Y-66716628D01*
X60313219Y-66716628D02*
X60313219Y-66811866D01*
X60313219Y-66811866D02*
X60360838Y-66954723D01*
X60360838Y-66954723D02*
X60408457Y-67002342D01*
X61313219Y-67954723D02*
X61313219Y-67383295D01*
X61313219Y-67669009D02*
X60313219Y-67669009D01*
X60313219Y-67669009D02*
X60456076Y-67573771D01*
X60456076Y-67573771D02*
X60551314Y-67478533D01*
X60551314Y-67478533D02*
X60598933Y-67383295D01*
X60313219Y-68288057D02*
X60313219Y-68907104D01*
X60313219Y-68907104D02*
X60694171Y-68573771D01*
X60694171Y-68573771D02*
X60694171Y-68716628D01*
X60694171Y-68716628D02*
X60741790Y-68811866D01*
X60741790Y-68811866D02*
X60789409Y-68859485D01*
X60789409Y-68859485D02*
X60884647Y-68907104D01*
X60884647Y-68907104D02*
X61122742Y-68907104D01*
X61122742Y-68907104D02*
X61217980Y-68859485D01*
X61217980Y-68859485D02*
X61265600Y-68811866D01*
X61265600Y-68811866D02*
X61313219Y-68716628D01*
X61313219Y-68716628D02*
X61313219Y-68430914D01*
X61313219Y-68430914D02*
X61265600Y-68335676D01*
X61265600Y-68335676D02*
X61217980Y-68288057D01*
%TO.C,R32*%
D11*
X63942700Y-56544942D02*
X63942700Y-57019458D01*
X64987700Y-56544942D02*
X64987700Y-57019458D01*
%TO.C,C6*%
X60396800Y-62962964D02*
X60396800Y-63178636D01*
X61116800Y-62962964D02*
X61116800Y-63178636D01*
%TO.C,C26*%
X62922621Y-54402400D02*
X62706949Y-54402400D01*
X62922621Y-55122400D02*
X62706949Y-55122400D01*
%TO.C,U4*%
X54605985Y-61754433D02*
X54605985Y-67274433D01*
X54605985Y-67274433D02*
X54875985Y-67274433D01*
X54875985Y-61754433D02*
X54605985Y-61754433D01*
X59855985Y-67274433D02*
X60125985Y-67274433D01*
X60125985Y-61754433D02*
X59855985Y-61754433D01*
X60125985Y-67274433D02*
X60125985Y-61754433D01*
X59865985Y-68104433D02*
X60335985Y-68444433D01*
X60335985Y-67764433D01*
X59865985Y-68104433D01*
G36*
X60335985Y-68444433D02*
G01*
X59865985Y-68104433D01*
X60335985Y-67764433D01*
X60335985Y-68444433D01*
G37*
%TO.C,C31*%
X98909200Y-90228749D02*
X98909200Y-90751253D01*
X100379200Y-90228749D02*
X100379200Y-90751253D01*
%TO.C,C7*%
X63274347Y-62358600D02*
X63796851Y-62358600D01*
X63274347Y-63828600D02*
X63796851Y-63828600D01*
%TO.C,C9*%
X63008564Y-60346000D02*
X63224236Y-60346000D01*
X63008564Y-61066000D02*
X63224236Y-61066000D01*
%TO.C,R29*%
X96452458Y-60437500D02*
X95977942Y-60437500D01*
X96452458Y-61482500D02*
X95977942Y-61482500D01*
%TO.C,C1*%
X48414000Y-63446253D02*
X48414000Y-62923749D01*
X49884000Y-63446253D02*
X49884000Y-62923749D01*
%TO.C,R30*%
X93279700Y-61535542D02*
X93279700Y-62010058D01*
X94324700Y-61535542D02*
X94324700Y-62010058D01*
%TO.C,C8*%
X63008564Y-61260400D02*
X63224236Y-61260400D01*
X63008564Y-61980400D02*
X63224236Y-61980400D01*
%TO.C,C16*%
X64156000Y-65103836D02*
X64156000Y-64888164D01*
X64876000Y-65103836D02*
X64876000Y-64888164D01*
%TO.C,C14*%
X61505000Y-65103835D02*
X61505000Y-64888163D01*
X62225000Y-65103835D02*
X62225000Y-64888163D01*
%TO.C,C17*%
X65070400Y-65103835D02*
X65070400Y-64888163D01*
X65790400Y-65103835D02*
X65790400Y-64888163D01*
%TO.C,D3*%
X104028000Y-47235200D02*
X109088000Y-47235200D01*
X104028000Y-49955200D02*
X104028000Y-47235200D01*
X104028000Y-49955200D02*
X109088000Y-49955200D01*
%TO.C,D2*%
X48170000Y-64953000D02*
X48170000Y-70013000D01*
X48170000Y-64953000D02*
X50890000Y-64953000D01*
X50890000Y-64953000D02*
X50890000Y-70013000D01*
%TO.C,C30*%
X75414200Y-90162748D02*
X75414200Y-90685252D01*
X76884200Y-90162748D02*
X76884200Y-90685252D01*
%TO.C,C23*%
X55475200Y-90101749D02*
X55475200Y-90624253D01*
X56945200Y-90101749D02*
X56945200Y-90624253D01*
%TO.C,C2*%
X52706600Y-65306347D02*
X52706600Y-65828851D01*
X54176600Y-65306347D02*
X54176600Y-65828851D01*
%TO.C,R33*%
X61908685Y-56544942D02*
X61908685Y-57019458D01*
X62953685Y-56544942D02*
X62953685Y-57019458D01*
%TO.C,C19*%
X65984800Y-65103836D02*
X65984800Y-64888164D01*
X66704800Y-65103836D02*
X66704800Y-64888164D01*
%TO.C,R14*%
X41410758Y-73670900D02*
X40936242Y-73670900D01*
X41410758Y-74715900D02*
X40936242Y-74715900D01*
%TO.C,R10*%
X85327485Y-44466742D02*
X85327485Y-44941258D01*
X86372485Y-44466742D02*
X86372485Y-44941258D01*
%TO.C,R34*%
X68616300Y-55813342D02*
X68616300Y-56287858D01*
X69661300Y-55813342D02*
X69661300Y-56287858D01*
%TO.C,R13*%
X41410758Y-70724500D02*
X40936242Y-70724500D01*
X41410758Y-71769500D02*
X40936242Y-71769500D01*
%TO.C,C15*%
X63241600Y-65103836D02*
X63241600Y-64888164D01*
X63961600Y-65103836D02*
X63961600Y-64888164D01*
%TO.C,U2*%
X51394100Y-60583601D02*
X51394100Y-60633601D01*
X51394100Y-63653601D02*
X51394100Y-63703601D01*
X51394100Y-63703601D02*
X53214100Y-63703601D01*
X53214100Y-60583601D02*
X51394100Y-60583601D01*
X53214100Y-60633601D02*
X53214100Y-60583601D01*
X53214100Y-62533601D02*
X53214100Y-61753601D01*
X53214100Y-63703601D02*
X53214100Y-63653601D01*
X50854100Y-63653601D02*
X50614100Y-63983601D01*
X51094100Y-63983601D01*
X50854100Y-63653601D01*
G36*
X51094100Y-63983601D02*
G01*
X50614100Y-63983601D01*
X50854100Y-63653601D01*
X51094100Y-63983601D01*
G37*
%TO.C,R31*%
X58875485Y-54275675D02*
X58875485Y-54750191D01*
X59920485Y-54275675D02*
X59920485Y-54750191D01*
%TO.C,C29*%
X79097200Y-90162748D02*
X79097200Y-90685252D01*
X80567200Y-90162748D02*
X80567200Y-90685252D01*
%TO.C,C13*%
X60505000Y-65103836D02*
X60505000Y-64888164D01*
X61225000Y-65103836D02*
X61225000Y-64888164D01*
%TD*%
%LPC*%
D12*
X41960800Y-95382000D02*
X113538000Y-95382000D01*
X52984400Y-82783600D02*
X101701600Y-82783600D01*
X58826400Y-77703600D02*
X96113600Y-77703600D01*
D13*
%TO.C,J5*%
X50114200Y-87254000D03*
D14*
X50114200Y-89794000D03*
X50114200Y-92334000D03*
%TD*%
D15*
%TO.C,J1*%
X113963200Y-52633600D03*
D16*
X111963200Y-51033600D03*
D17*
X111963200Y-48533600D03*
%TD*%
D18*
%TO.C,H4*%
X114351200Y-41178400D03*
%TD*%
D19*
%TO.C,J27*%
X44320000Y-69575150D03*
X44320000Y-75355150D03*
D20*
X44820000Y-68145150D03*
X44820000Y-76785150D03*
D21*
X40640000Y-68145150D03*
X40640000Y-76785150D03*
%TD*%
D22*
%TO.C,J20*%
X45745399Y-61163200D03*
D14*
X43205399Y-61163200D03*
X40665399Y-61163200D03*
%TD*%
D13*
%TO.C,J14*%
X93929200Y-87279400D03*
D14*
X93929200Y-89819400D03*
X93929200Y-92359400D03*
%TD*%
D13*
%TO.C,J18*%
X113487200Y-87279400D03*
D14*
X113487200Y-89819400D03*
X113487200Y-92359400D03*
%TD*%
D13*
%TO.C,J4*%
X46050200Y-87254000D03*
D14*
X46050200Y-89794000D03*
X46050200Y-92334000D03*
%TD*%
D13*
%TO.C,J17*%
X109550200Y-87279400D03*
D14*
X109550200Y-89819400D03*
X109550200Y-92359400D03*
%TD*%
D22*
%TO.C,J19*%
X45745399Y-64744600D03*
D14*
X43205399Y-64744600D03*
X40665399Y-64744600D03*
%TD*%
D22*
%TO.C,J22*%
X45719999Y-46939200D03*
D14*
X43179999Y-46939200D03*
X40639999Y-46939200D03*
%TD*%
D23*
%TO.C,J25*%
X111963200Y-57307400D03*
D24*
X111963200Y-62307400D03*
%TD*%
D18*
%TO.C,H2*%
X41351200Y-81178400D03*
%TD*%
D25*
%TO.C,J26*%
X53340001Y-42545000D03*
D14*
X55880001Y-42545000D03*
X58420001Y-42545000D03*
X60960001Y-42545000D03*
X63500001Y-42545000D03*
X66040001Y-42545000D03*
X68580001Y-42545000D03*
X71120001Y-42545000D03*
X73660001Y-42545000D03*
X76200001Y-42545000D03*
X78740001Y-42545000D03*
%TD*%
D13*
%TO.C,J16*%
X105613200Y-87279400D03*
D14*
X105613200Y-89819400D03*
X105613200Y-92359400D03*
%TD*%
D18*
%TO.C,H3*%
X114351200Y-81178400D03*
%TD*%
D13*
%TO.C,J15*%
X101675800Y-87279400D03*
D14*
X101675800Y-89819400D03*
X101675800Y-92359400D03*
%TD*%
D13*
%TO.C,J6*%
X54178200Y-87254000D03*
D14*
X54178200Y-89794000D03*
X54178200Y-92334000D03*
%TD*%
D13*
%TO.C,J11*%
X81864200Y-87279400D03*
D14*
X81864200Y-89819400D03*
X81864200Y-92359400D03*
%TD*%
D22*
%TO.C,J24*%
X45745399Y-54051200D03*
D14*
X43205399Y-54051200D03*
X40665399Y-54051200D03*
%TD*%
D13*
%TO.C,J10*%
X74117200Y-87279400D03*
D14*
X74117200Y-89819400D03*
X74117200Y-92359400D03*
%TD*%
D18*
%TO.C,H1*%
X41351200Y-41178400D03*
%TD*%
D22*
%TO.C,J21*%
X45745399Y-50495200D03*
D14*
X43205399Y-50495200D03*
X40665399Y-50495200D03*
%TD*%
D22*
%TO.C,J23*%
X45719999Y-57607200D03*
D14*
X43179999Y-57607200D03*
X40639999Y-57607200D03*
%TD*%
D13*
%TO.C,J9*%
X70053200Y-87279400D03*
D14*
X70053200Y-89819400D03*
X70053200Y-92359400D03*
%TD*%
D13*
%TO.C,J8*%
X65989200Y-87279400D03*
D14*
X65989200Y-89819400D03*
X65989200Y-92359400D03*
%TD*%
D13*
%TO.C,J3*%
X41986200Y-87254000D03*
D14*
X41986200Y-89794000D03*
X41986200Y-92334000D03*
%TD*%
D13*
%TO.C,J13*%
X89839400Y-87279400D03*
D14*
X89839400Y-89819400D03*
X89839400Y-92359400D03*
%TD*%
D13*
%TO.C,J12*%
X85826200Y-87279400D03*
D14*
X85826200Y-89819400D03*
X85826200Y-92359400D03*
%TD*%
D13*
%TO.C,J7*%
X61925200Y-87279400D03*
D14*
X61925200Y-89819400D03*
X61925200Y-92359400D03*
%TD*%
D26*
%TO.C,R32*%
X64465200Y-55957200D03*
X64465200Y-57607200D03*
%TD*%
D27*
%TO.C,C6*%
X60756800Y-62590800D03*
X60756800Y-63550800D03*
%TD*%
D28*
%TO.C,C26*%
X63294785Y-54762400D03*
X62334785Y-54762400D03*
%TD*%
D29*
%TO.C,U4*%
X59270985Y-68101933D03*
X58000985Y-68101933D03*
X56730985Y-68101933D03*
X55460985Y-68101933D03*
X55460985Y-60926933D03*
X56730985Y-60926933D03*
X58000985Y-60926933D03*
X59270985Y-60926933D03*
%TD*%
D30*
%TO.C,C31*%
X99644200Y-89540001D03*
X99644200Y-91440001D03*
%TD*%
D31*
%TO.C,C7*%
X62585599Y-63093600D03*
X64485599Y-63093600D03*
%TD*%
D32*
%TO.C,C9*%
X62636400Y-60706000D03*
X63596400Y-60706000D03*
%TD*%
D33*
%TO.C,R29*%
X97040200Y-60960000D03*
X95390200Y-60960000D03*
%TD*%
D34*
%TO.C,C1*%
X49149000Y-64135001D03*
X49149000Y-62235001D03*
%TD*%
D26*
%TO.C,R30*%
X93802200Y-60947800D03*
X93802200Y-62597800D03*
%TD*%
D32*
%TO.C,C8*%
X62636400Y-61620400D03*
X63596400Y-61620400D03*
%TD*%
D35*
%TO.C,C16*%
X64516000Y-65476000D03*
X64516000Y-64516000D03*
%TD*%
%TO.C,C14*%
X61865000Y-65475999D03*
X61865000Y-64515999D03*
%TD*%
%TO.C,C17*%
X65430400Y-65475999D03*
X65430400Y-64515999D03*
%TD*%
D36*
%TO.C,D3*%
X104988000Y-48595200D03*
X109388000Y-48595200D03*
%TD*%
D37*
%TO.C,D2*%
X49530000Y-65913000D03*
X49530000Y-70313000D03*
%TD*%
D30*
%TO.C,C30*%
X76149200Y-89474000D03*
X76149200Y-91374000D03*
%TD*%
%TO.C,C23*%
X56210200Y-89413001D03*
X56210200Y-91313001D03*
%TD*%
%TO.C,C2*%
X53441600Y-64617599D03*
X53441600Y-66517599D03*
%TD*%
D26*
%TO.C,R33*%
X62431185Y-55957200D03*
X62431185Y-57607200D03*
%TD*%
D35*
%TO.C,C19*%
X66344800Y-65476000D03*
X66344800Y-64516000D03*
%TD*%
D33*
%TO.C,R14*%
X41998500Y-74193400D03*
X40348500Y-74193400D03*
%TD*%
D26*
%TO.C,R10*%
X85849985Y-43879000D03*
X85849985Y-45529000D03*
%TD*%
%TO.C,R34*%
X69138800Y-55225600D03*
X69138800Y-56875600D03*
%TD*%
D33*
%TO.C,R13*%
X41998500Y-71247000D03*
X40348500Y-71247000D03*
%TD*%
D35*
%TO.C,C15*%
X63601600Y-65476000D03*
X63601600Y-64516000D03*
%TD*%
D38*
%TO.C,U2*%
X51166600Y-63093601D03*
X51166600Y-62143601D03*
X51166600Y-61193601D03*
X53441600Y-61193601D03*
X53441600Y-63093601D03*
%TD*%
D26*
%TO.C,R31*%
X59397985Y-53687933D03*
X59397985Y-55337933D03*
%TD*%
D30*
%TO.C,C29*%
X79832200Y-89474000D03*
X79832200Y-91374000D03*
%TD*%
D35*
%TO.C,C13*%
X60865000Y-65476000D03*
X60865000Y-64516000D03*
%TD*%
D39*
X101701600Y-82783600D03*
X52984400Y-82783600D03*
X72237600Y-77703600D03*
X41960800Y-95382000D03*
X96113600Y-77703600D03*
X58877200Y-77703600D03*
X113487200Y-95382000D03*
X74726800Y-77703600D03*
%LPD*%
M02*
