%TF.GenerationSoftware,KiCad,Pcbnew,10.0.5*%
%TF.CreationDate,2026-09-04T21:38:02+09:00*%
%TF.ProjectId,robodog_servodriver,726f626f-646f-4675-9f73-6572766f6472,rev?*%
%TF.SameCoordinates,Original*%
%TF.FileFunction,Soldermask,Top*%
%TF.FilePolarity,Negative*%
%FSLAX46Y46*%
G04 Gerber Fmt 4.6, Leading zero omitted, Abs format (unit mm)*
G04 Created by KiCad (PCBNEW 10.0.5) date 2026-09-04 21:38:02*
%MOMM*%
%LPD*%
G01*
G04 APERTURE LIST*
G04 Aperture macros list*
%AMRoundRect*
0 Rectangle with rounded corners*
0 $1 Rounding radius*
0 $2 $3 $4 $5 $6 $7 $8 $9 X,Y pos of 4 corners*
0 Add a 4 corners polygon primitive as box body*
4,1,4,$2,$3,$4,$5,$6,$7,$8,$9,$2,$3,0*
0 Add four circle primitives for the rounded corners*
1,1,$1+$1,$2,$3*
1,1,$1+$1,$4,$5*
1,1,$1+$1,$6,$7*
1,1,$1+$1,$8,$9*
0 Add four rect primitives between the rounded corners*
20,1,$1+$1,$2,$3,$4,$5,0*
20,1,$1+$1,$4,$5,$6,$7,0*
20,1,$1+$1,$6,$7,$8,$9,0*
20,1,$1+$1,$8,$9,$2,$3,0*%
G04 Aperture macros list end*
%ADD10C,0.000000*%
%ADD11RoundRect,0.250000X0.200000X0.275000X-0.200000X0.275000X-0.200000X-0.275000X0.200000X-0.275000X0*%
%ADD12RoundRect,0.200000X0.150000X-0.512500X0.150000X0.512500X-0.150000X0.512500X-0.150000X-0.512500X0*%
%ADD13RoundRect,0.050000X-0.850000X-0.850000X0.850000X-0.850000X0.850000X0.850000X-0.850000X0.850000X0*%
%ADD14C,1.800000*%
%ADD15RoundRect,0.050000X0.125000X0.337500X-0.125000X0.337500X-0.125000X-0.337500X0.125000X-0.337500X0*%
%ADD16RoundRect,0.050000X0.287500X-0.125000X0.287500X0.125000X-0.287500X0.125000X-0.287500X-0.125000X0*%
%ADD17C,1.300000*%
%ADD18RoundRect,0.300000X0.750000X-0.600000X0.750000X0.600000X-0.750000X0.600000X-0.750000X-0.600000X0*%
%ADD19O,2.100000X1.800000*%
%ADD20RoundRect,0.300000X-0.525000X-0.400000X0.525000X-0.400000X0.525000X0.400000X-0.525000X0.400000X0*%
%ADD21RoundRect,0.300000X0.525000X0.400000X-0.525000X0.400000X-0.525000X-0.400000X0.525000X-0.400000X0*%
%ADD22C,5.600000*%
%ADD23RoundRect,0.190000X0.140000X0.170000X-0.140000X0.170000X-0.140000X-0.170000X0.140000X-0.170000X0*%
%ADD24C,0.690000*%
%ADD25RoundRect,0.050000X-0.575000X0.300000X-0.575000X-0.300000X0.575000X-0.300000X0.575000X0.300000X0*%
%ADD26RoundRect,0.050000X-0.575000X0.150000X-0.575000X-0.150000X0.575000X-0.150000X0.575000X0.150000X0*%
%ADD27O,2.304000X1.204000*%
%ADD28O,2.004000X1.204000*%
%ADD29RoundRect,0.050000X-0.850000X0.850000X-0.850000X-0.850000X0.850000X-0.850000X0.850000X0.850000X0*%
%ADD30RoundRect,0.190000X-0.140000X-0.170000X0.140000X-0.170000X0.140000X0.170000X-0.140000X0.170000X0*%
%ADD31RoundRect,0.185000X-0.135000X-0.185000X0.135000X-0.185000X0.135000X0.185000X-0.135000X0.185000X0*%
%ADD32RoundRect,0.250000X-0.200000X-0.275000X0.200000X-0.275000X0.200000X0.275000X-0.200000X0.275000X0*%
%ADD33RoundRect,0.268750X0.256250X-0.218750X0.256250X0.218750X-0.256250X0.218750X-0.256250X-0.218750X0*%
%ADD34RoundRect,0.268750X-0.256250X0.218750X-0.256250X-0.218750X0.256250X-0.218750X0.256250X0.218750X0*%
%ADD35RoundRect,0.050000X0.883883X0.106066X0.106066X0.883883X-0.883883X-0.106066X-0.106066X-0.883883X0*%
%ADD36RoundRect,0.190000X-0.021213X0.219203X-0.219203X0.021213X0.021213X-0.219203X0.219203X-0.021213X0*%
%ADD37RoundRect,0.800000X-0.750000X0.750000X-0.750000X-0.750000X0.750000X-0.750000X0.750000X0.750000X0*%
%ADD38C,3.100000*%
%ADD39RoundRect,0.300000X0.250000X0.475000X-0.250000X0.475000X-0.250000X-0.475000X0.250000X-0.475000X0*%
%ADD40RoundRect,0.190000X0.021213X-0.219203X0.219203X-0.021213X-0.021213X0.219203X-0.219203X0.021213X0*%
%ADD41RoundRect,0.250000X0.275000X-0.200000X0.275000X0.200000X-0.275000X0.200000X-0.275000X-0.200000X0*%
%ADD42RoundRect,0.100000X0.050000X-0.387500X0.050000X0.387500X-0.050000X0.387500X-0.050000X-0.387500X0*%
%ADD43RoundRect,0.100000X0.387500X-0.050000X0.387500X0.050000X-0.387500X0.050000X-0.387500X-0.050000X0*%
%ADD44RoundRect,0.050000X1.600000X-1.600000X1.600000X1.600000X-1.600000X1.600000X-1.600000X-1.600000X0*%
%ADD45RoundRect,0.050000X0.850000X-0.850000X0.850000X0.850000X-0.850000X0.850000X-0.850000X-0.850000X0*%
%ADD46RoundRect,0.272000X-0.170000X0.295000X-0.170000X-0.295000X0.170000X-0.295000X0.170000X0.295000X0*%
%ADD47RoundRect,0.222000X-0.120000X0.345000X-0.120000X-0.345000X0.120000X-0.345000X0.120000X0.345000X0*%
%ADD48RoundRect,0.300000X0.785000X1.045000X-0.785000X1.045000X-0.785000X-1.045000X0.785000X-1.045000X0*%
%ADD49RoundRect,0.250000X-0.275000X0.200000X-0.275000X-0.200000X0.275000X-0.200000X0.275000X0.200000X0*%
%ADD50RoundRect,0.050000X0.431800X0.177800X-0.431800X0.177800X-0.431800X-0.177800X0.431800X-0.177800X0*%
%ADD51RoundRect,0.200000X-0.150000X-0.200000X0.150000X-0.200000X0.150000X0.200000X-0.150000X0.200000X0*%
%ADD52RoundRect,0.275000X-0.225000X-0.250000X0.225000X-0.250000X0.225000X0.250000X-0.225000X0.250000X0*%
%ADD53RoundRect,0.190000X0.170000X-0.140000X0.170000X0.140000X-0.170000X0.140000X-0.170000X-0.140000X0*%
%ADD54RoundRect,0.300000X1.425000X-0.362500X1.425000X0.362500X-1.425000X0.362500X-1.425000X-0.362500X0*%
%ADD55RoundRect,0.200000X-0.150000X-0.625000X0.150000X-0.625000X0.150000X0.625000X-0.150000X0.625000X0*%
%ADD56RoundRect,0.300000X-0.350000X-0.650000X0.350000X-0.650000X0.350000X0.650000X-0.350000X0.650000X0*%
%ADD57RoundRect,0.050000X-0.406400X0.127000X-0.406400X-0.127000X0.406400X-0.127000X0.406400X0.127000X0*%
%ADD58RoundRect,0.050000X-0.127000X-0.406400X0.127000X-0.406400X0.127000X0.406400X-0.127000X0.406400X0*%
%ADD59RoundRect,0.050000X-1.079500X0.571500X-1.079500X-0.571500X1.079500X-0.571500X1.079500X0.571500X0*%
%ADD60RoundRect,0.300000X-0.250000X-0.650000X0.250000X-0.650000X0.250000X0.650000X-0.250000X0.650000X0*%
%ADD61C,3.300000*%
G04 APERTURE END LIST*
D10*
%TO.C,Q2*%
G36*
X106222798Y-56174199D02*
G01*
X107619798Y-56174199D01*
X107619798Y-58409399D01*
X106222798Y-58409399D01*
X106222798Y-58993599D01*
X105892598Y-58993599D01*
X105892598Y-55589999D01*
X106222798Y-55589999D01*
X106222798Y-56174199D01*
G37*
%TD*%
D11*
%TO.C,R12*%
X103022400Y-49611200D03*
X101372400Y-49611200D03*
%TD*%
D12*
%TO.C,U5*%
X83124000Y-68580000D03*
X84074000Y-68580000D03*
X85024000Y-68580000D03*
X85024000Y-66305000D03*
X83124000Y-66305000D03*
%TD*%
D13*
%TO.C,J5*%
X50114200Y-87254000D03*
D14*
X50114200Y-89794000D03*
X50114200Y-92334000D03*
%TD*%
D15*
%TO.C,IC1*%
X61096985Y-51577933D03*
D16*
X61033985Y-52390933D03*
X61033985Y-52890933D03*
X61033985Y-53390933D03*
X61033985Y-53890933D03*
D15*
X61096985Y-54703933D03*
X61596985Y-54703933D03*
X62096985Y-54703933D03*
X62596985Y-54703933D03*
X63096985Y-54703933D03*
X63596985Y-54703933D03*
X64096985Y-54703933D03*
X64596985Y-54703933D03*
X65096985Y-54703933D03*
X65596985Y-54703933D03*
D16*
X65659985Y-53890933D03*
X65659985Y-53390933D03*
X65659985Y-52890933D03*
X65659985Y-52390933D03*
D15*
X65596985Y-51577933D03*
X65096985Y-51577933D03*
X64596985Y-51577933D03*
X64096985Y-51577933D03*
X63596985Y-51577933D03*
X63096985Y-51577933D03*
X62596985Y-51577933D03*
X62096985Y-51577933D03*
X61596985Y-51577933D03*
%TD*%
D17*
%TO.C,J1*%
X113963200Y-52633600D03*
D18*
X111963200Y-51033600D03*
D19*
X111963200Y-48533600D03*
%TD*%
D11*
%TO.C,R35*%
X86055200Y-47223600D03*
X84405200Y-47223600D03*
%TD*%
D20*
%TO.C,SW1*%
X89339600Y-41341400D03*
X97299600Y-41341400D03*
X89339600Y-45841400D03*
X97299600Y-45841400D03*
%TD*%
D21*
%TO.C,SW2*%
X108018400Y-45841400D03*
X100058400Y-45841400D03*
X108018400Y-41341400D03*
X100058400Y-41341400D03*
%TD*%
D22*
%TO.C,H4*%
X114351200Y-41178400D03*
%TD*%
D23*
%TO.C,C27*%
X59143985Y-54195933D03*
X58183985Y-54195933D03*
%TD*%
D24*
%TO.C,J27*%
X44320000Y-69575150D03*
X44320000Y-75355150D03*
D25*
X45385000Y-69265150D03*
X45385000Y-70065150D03*
D26*
X45385000Y-71215150D03*
X45385000Y-72215150D03*
X45385000Y-72715150D03*
X45385000Y-73715150D03*
D25*
X45385000Y-75665150D03*
X45385000Y-74865150D03*
D26*
X45385000Y-74215150D03*
X45385000Y-73215150D03*
X45385000Y-71715150D03*
X45385000Y-70715150D03*
D27*
X44820000Y-68145150D03*
X44820000Y-76785150D03*
D28*
X40640000Y-68145150D03*
X40640000Y-76785150D03*
%TD*%
D23*
%TO.C,C24*%
X61528987Y-49750933D03*
X60568987Y-49750933D03*
%TD*%
D29*
%TO.C,J20*%
X45745399Y-61163200D03*
D14*
X43205399Y-61163200D03*
X40665399Y-61163200D03*
%TD*%
D13*
%TO.C,J14*%
X93929200Y-87279400D03*
D14*
X93929200Y-89819400D03*
X93929200Y-92359400D03*
%TD*%
D30*
%TO.C,C25*%
X63080985Y-49750933D03*
X64040985Y-49750933D03*
%TD*%
D31*
%TO.C,R8*%
X58758986Y-61595000D03*
X59778986Y-61595000D03*
%TD*%
D13*
%TO.C,J18*%
X113487200Y-87279400D03*
D14*
X113487200Y-89819400D03*
X113487200Y-92359400D03*
%TD*%
D32*
%TO.C,R9*%
X57429985Y-66133933D03*
X59079985Y-66133933D03*
%TD*%
D33*
%TO.C,D5*%
X99645200Y-51211501D03*
X99645200Y-49636499D03*
%TD*%
D13*
%TO.C,J4*%
X46050200Y-87254000D03*
D14*
X46050200Y-89794000D03*
X46050200Y-92334000D03*
%TD*%
D34*
%TO.C,D4*%
X94209600Y-49738099D03*
X94209600Y-51313101D03*
%TD*%
D35*
%TO.C,X1*%
X74704728Y-65177012D03*
X76260363Y-63621377D03*
X75128990Y-62490004D03*
X73573355Y-64045639D03*
%TD*%
D36*
%TO.C,C5*%
X75253222Y-60413178D03*
X74574400Y-61092000D03*
%TD*%
D13*
%TO.C,J17*%
X109550200Y-87279400D03*
D14*
X109550200Y-89819400D03*
X109550200Y-92359400D03*
%TD*%
D32*
%TO.C,R4*%
X59080985Y-69181933D03*
X60730985Y-69181933D03*
%TD*%
D29*
%TO.C,J19*%
X45745399Y-64744600D03*
D14*
X43205399Y-64744600D03*
X40665399Y-64744600D03*
%TD*%
D29*
%TO.C,J22*%
X45719999Y-46939200D03*
D14*
X43179999Y-46939200D03*
X40639999Y-46939200D03*
%TD*%
D37*
%TO.C,J25*%
X111963200Y-57307400D03*
D38*
X111963200Y-62307400D03*
%TD*%
D39*
%TO.C,C11*%
X59524986Y-57023000D03*
X57624986Y-57023000D03*
%TD*%
D22*
%TO.C,H2*%
X41351200Y-81178400D03*
%TD*%
D40*
%TO.C,C4*%
X71413574Y-64079318D03*
X72092396Y-63400496D03*
%TD*%
D41*
%TO.C,R5*%
X60731985Y-67783933D03*
X60731985Y-66133933D03*
%TD*%
D42*
%TO.C,U1*%
X62758485Y-65773407D03*
X63158485Y-65773407D03*
X63558485Y-65773407D03*
X63958485Y-65773407D03*
X64358485Y-65773407D03*
X64758485Y-65773407D03*
X65158485Y-65773407D03*
X65558485Y-65773407D03*
X65958485Y-65773407D03*
X66358485Y-65773407D03*
X66758485Y-65773407D03*
X67158485Y-65773407D03*
X67558485Y-65773407D03*
X67958485Y-65773407D03*
D43*
X68795985Y-64935907D03*
X68795985Y-64535907D03*
X68795985Y-64135907D03*
X68795985Y-63735907D03*
X68795985Y-63335907D03*
X68795985Y-62935907D03*
X68795985Y-62535907D03*
X68795985Y-62135907D03*
X68795985Y-61735907D03*
X68795985Y-61335907D03*
X68795985Y-60935907D03*
X68795985Y-60535907D03*
X68795985Y-60135907D03*
X68795985Y-59735907D03*
D42*
X67958485Y-58898407D03*
X67558485Y-58898407D03*
X67158485Y-58898407D03*
X66758485Y-58898407D03*
X66358485Y-58898407D03*
X65958485Y-58898407D03*
X65558485Y-58898407D03*
X65158485Y-58898407D03*
X64758485Y-58898407D03*
X64358485Y-58898407D03*
X63958485Y-58898407D03*
X63558485Y-58898407D03*
X63158485Y-58898407D03*
X62758485Y-58898407D03*
D43*
X61920985Y-59735907D03*
X61920985Y-60135907D03*
X61920985Y-60535907D03*
X61920985Y-60935907D03*
X61920985Y-61335907D03*
X61920985Y-61735907D03*
X61920985Y-62135907D03*
X61920985Y-62535907D03*
X61920985Y-62935907D03*
X61920985Y-63335907D03*
X61920985Y-63735907D03*
X61920985Y-64135907D03*
X61920985Y-64535907D03*
X61920985Y-64935907D03*
D44*
X65358485Y-62335907D03*
%TD*%
D45*
%TO.C,J26*%
X53340001Y-42545000D03*
D14*
X55880001Y-42545000D03*
X58420001Y-42545000D03*
X60960001Y-42545000D03*
X63500001Y-42545000D03*
X66040001Y-42545000D03*
X68580001Y-42545000D03*
X71120001Y-42545000D03*
X73660001Y-42545000D03*
X76200001Y-42545000D03*
X78740001Y-42545000D03*
%TD*%
D46*
%TO.C,RN4*%
X108945200Y-80313400D03*
D47*
X108045200Y-80313400D03*
X107245200Y-80313400D03*
D46*
X106345200Y-80313400D03*
X106345200Y-82053400D03*
D47*
X107245200Y-82053400D03*
X108045200Y-82053400D03*
D46*
X108945200Y-82053400D03*
%TD*%
D39*
%TO.C,C10*%
X59524986Y-59055000D03*
X57624986Y-59055000D03*
%TD*%
D13*
%TO.C,J16*%
X105613200Y-87279400D03*
D14*
X105613200Y-89819400D03*
X105613200Y-92359400D03*
%TD*%
D22*
%TO.C,H3*%
X114351200Y-81178400D03*
%TD*%
D13*
%TO.C,J15*%
X101675800Y-87279400D03*
D14*
X101675800Y-89819400D03*
X101675800Y-92359400D03*
%TD*%
D48*
%TO.C,C20*%
X106244000Y-62230000D03*
X100004000Y-62230000D03*
%TD*%
D49*
%TO.C,R3*%
X72288400Y-60126800D03*
X72288400Y-61776800D03*
%TD*%
D11*
%TO.C,R28*%
X81530999Y-68580000D03*
X79880999Y-68580000D03*
%TD*%
D50*
%TO.C,Q2*%
X104905602Y-56316800D03*
X104905602Y-56966798D03*
X104905602Y-57616800D03*
X104905602Y-58266798D03*
X108051600Y-58266798D03*
X108051600Y-57616800D03*
X108051600Y-56966798D03*
X108051600Y-56316800D03*
%TD*%
D30*
%TO.C,C12*%
X82991999Y-64770000D03*
X83951999Y-64770000D03*
%TD*%
D13*
%TO.C,J6*%
X54178200Y-87254000D03*
D14*
X54178200Y-89794000D03*
X54178200Y-92334000D03*
%TD*%
D13*
%TO.C,J11*%
X81864200Y-87279400D03*
D14*
X81864200Y-89819400D03*
X81864200Y-92359400D03*
%TD*%
D32*
%TO.C,R6*%
X76325985Y-57658000D03*
X77975985Y-57658000D03*
%TD*%
D51*
%TO.C,D1*%
X59080985Y-67657933D03*
X57680985Y-67657933D03*
%TD*%
D29*
%TO.C,J24*%
X45745399Y-54051200D03*
D14*
X43205399Y-54051200D03*
X40665399Y-54051200D03*
%TD*%
D31*
%TO.C,R7*%
X58760985Y-60579000D03*
X59780985Y-60579000D03*
%TD*%
D52*
%TO.C,C18*%
X79930999Y-70117000D03*
X81480999Y-70117000D03*
%TD*%
D13*
%TO.C,J10*%
X74117200Y-87279400D03*
D14*
X74117200Y-89819400D03*
X74117200Y-92359400D03*
%TD*%
D46*
%TO.C,RN3*%
X89133200Y-80313400D03*
D47*
X88233200Y-80313400D03*
X87433200Y-80313400D03*
D46*
X86533200Y-80313400D03*
X86533200Y-82053400D03*
D47*
X87433200Y-82053400D03*
X88233200Y-82053400D03*
D46*
X89133200Y-82053400D03*
%TD*%
D53*
%TO.C,C3*%
X58826400Y-50396000D03*
X58826400Y-49436000D03*
%TD*%
D46*
%TO.C,RN2*%
X69321200Y-80313400D03*
D47*
X68421200Y-80313400D03*
X67621200Y-80313400D03*
D46*
X66721200Y-80313400D03*
X66721200Y-82053400D03*
D47*
X67621200Y-82053400D03*
X68421200Y-82053400D03*
D46*
X69321200Y-82053400D03*
%TD*%
D22*
%TO.C,H1*%
X41351200Y-41178400D03*
%TD*%
D48*
%TO.C,C22*%
X106244000Y-67056000D03*
X100004000Y-67056000D03*
%TD*%
D29*
%TO.C,J21*%
X45745399Y-50495200D03*
D14*
X43205399Y-50495200D03*
X40665399Y-50495200D03*
%TD*%
D54*
%TO.C,R1*%
X91948000Y-76865400D03*
X91948000Y-70940400D03*
%TD*%
D11*
%TO.C,R36*%
X85153000Y-45750400D03*
X83503000Y-45750400D03*
%TD*%
D29*
%TO.C,J23*%
X45719999Y-57607200D03*
D14*
X43179999Y-57607200D03*
X40639999Y-57607200D03*
%TD*%
D13*
%TO.C,J9*%
X70053200Y-87279400D03*
D14*
X70053200Y-89819400D03*
X70053200Y-92359400D03*
%TD*%
D11*
%TO.C,R15*%
X97637600Y-51287600D03*
X95987600Y-51287600D03*
%TD*%
D48*
%TO.C,C21*%
X106244000Y-71882000D03*
X100004000Y-71882000D03*
%TD*%
D55*
%TO.C,J2*%
X82777200Y-41614400D03*
X83777200Y-41614400D03*
X84777200Y-41614400D03*
X85777200Y-41614400D03*
D56*
X81477200Y-39089400D03*
X87077200Y-39089400D03*
%TD*%
D57*
%TO.C,U3*%
X57670785Y-49881870D03*
D58*
X57219300Y-48938133D03*
X56719174Y-48938133D03*
X56219048Y-48938133D03*
X55718922Y-48938133D03*
X55218796Y-48938133D03*
X54718670Y-48938133D03*
D57*
X54267185Y-49881870D03*
X54267185Y-50381996D03*
D58*
X54718670Y-51325733D03*
X55218796Y-51325733D03*
X55718922Y-51325733D03*
X56219048Y-51325733D03*
X56719174Y-51325733D03*
X57219300Y-51325733D03*
D57*
X57670785Y-50381996D03*
D59*
X55968985Y-50131933D03*
%TD*%
D23*
%TO.C,C28*%
X59143985Y-52695936D03*
X58183985Y-52695936D03*
%TD*%
D13*
%TO.C,J8*%
X65989200Y-87279400D03*
D14*
X65989200Y-89819400D03*
X65989200Y-92359400D03*
%TD*%
D13*
%TO.C,J3*%
X41986200Y-87254000D03*
D14*
X41986200Y-89794000D03*
X41986200Y-92334000D03*
%TD*%
D13*
%TO.C,J13*%
X89839400Y-87279400D03*
D14*
X89839400Y-89819400D03*
X89839400Y-92359400D03*
%TD*%
D13*
%TO.C,J12*%
X85826200Y-87279400D03*
D14*
X85826200Y-89819400D03*
X85826200Y-92359400D03*
%TD*%
D13*
%TO.C,J7*%
X61925200Y-87279400D03*
D14*
X61925200Y-89819400D03*
X61925200Y-92359400D03*
%TD*%
D46*
%TO.C,RN1*%
X49407600Y-80313400D03*
D47*
X48507600Y-80313400D03*
X47707600Y-80313400D03*
D46*
X46807600Y-80313400D03*
X46807600Y-82053400D03*
D47*
X47707600Y-82053400D03*
X48507600Y-82053400D03*
D46*
X49407600Y-82053400D03*
%TD*%
D60*
%TO.C,Y2*%
X61068984Y-47792931D03*
X63568984Y-47792931D03*
%TD*%
D61*
X101701600Y-82783600D03*
X52984400Y-82783600D03*
X72237600Y-77703600D03*
X41960800Y-95382000D03*
X96113600Y-77703600D03*
X58877200Y-77703600D03*
X113487200Y-95382000D03*
X74726800Y-77703600D03*
M02*
