%TF.GenerationSoftware,KiCad,Pcbnew,10.0.5*%
%TF.CreationDate,2026-09-04T21:38:02+09:00*%
%TF.ProjectId,robodog_servodriver,726f626f-646f-4675-9f73-6572766f6472,rev?*%
%TF.SameCoordinates,Original*%
%TF.FileFunction,Soldermask,Bot*%
%TF.FilePolarity,Negative*%
%FSLAX46Y46*%
G04 Gerber Fmt 4.6, Leading zero omitted, Abs format (unit mm)*
G04 Created by KiCad (PCBNEW 10.0.5) date 2026-09-04 21:38:02*
%MOMM*%
%LPD*%
G01*
G04 APERTURE LIST*
G04 Aperture macros list*
%AMRoundRect*
0 Rectangle with rounded corners*
0 $1 Rounding radius*
0 $2 $3 $4 $5 $6 $7 $8 $9 X,Y pos of 4 corners*
0 Add a 4 corners polygon primitive as box body*
4,1,4,$2,$3,$4,$5,$6,$7,$8,$9,$2,$3,0*
0 Add four circle primitives for the rounded corners*
1,1,$1+$1,$2,$3*
1,1,$1+$1,$4,$5*
1,1,$1+$1,$6,$7*
1,1,$1+$1,$8,$9*
0 Add four rect primitives between the rounded corners*
20,1,$1+$1,$2,$3,$4,$5,0*
20,1,$1+$1,$4,$5,$6,$7,0*
20,1,$1+$1,$6,$7,$8,$9,0*
20,1,$1+$1,$8,$9,$2,$3,0*%
G04 Aperture macros list end*
%ADD10C,3.200000*%
%ADD11RoundRect,0.050000X-0.850000X-0.850000X0.850000X-0.850000X0.850000X0.850000X-0.850000X0.850000X0*%
%ADD12C,1.800000*%
%ADD13C,1.300000*%
%ADD14RoundRect,0.300000X0.750000X-0.600000X0.750000X0.600000X-0.750000X0.600000X-0.750000X-0.600000X0*%
%ADD15O,2.100000X1.800000*%
%ADD16C,5.600000*%
%ADD17C,0.690000*%
%ADD18O,2.304000X1.204000*%
%ADD19O,2.004000X1.204000*%
%ADD20RoundRect,0.050000X-0.850000X0.850000X-0.850000X-0.850000X0.850000X-0.850000X0.850000X0.850000X0*%
%ADD21RoundRect,0.800000X-0.750000X0.750000X-0.750000X-0.750000X0.750000X-0.750000X0.750000X0.750000X0*%
%ADD22C,3.100000*%
%ADD23RoundRect,0.050000X0.850000X-0.850000X0.850000X0.850000X-0.850000X0.850000X-0.850000X-0.850000X0*%
%ADD24RoundRect,0.250000X-0.275000X0.200000X-0.275000X-0.200000X0.275000X-0.200000X0.275000X0.200000X0*%
%ADD25RoundRect,0.190000X-0.170000X0.140000X-0.170000X-0.140000X0.170000X-0.140000X0.170000X0.140000X0*%
%ADD26RoundRect,0.190000X0.140000X0.170000X-0.140000X0.170000X-0.140000X-0.170000X0.140000X-0.170000X0*%
%ADD27RoundRect,0.212500X0.162500X-0.650000X0.162500X0.650000X-0.162500X0.650000X-0.162500X-0.650000X0*%
%ADD28RoundRect,0.300000X-0.475000X0.250000X-0.475000X-0.250000X0.475000X-0.250000X0.475000X0.250000X0*%
%ADD29RoundRect,0.300000X-0.250000X-0.475000X0.250000X-0.475000X0.250000X0.475000X-0.250000X0.475000X0*%
%ADD30RoundRect,0.190000X-0.140000X-0.170000X0.140000X-0.170000X0.140000X0.170000X-0.140000X0.170000X0*%
%ADD31RoundRect,0.250000X0.200000X0.275000X-0.200000X0.275000X-0.200000X-0.275000X0.200000X-0.275000X0*%
%ADD32RoundRect,0.300000X0.475000X-0.250000X0.475000X0.250000X-0.475000X0.250000X-0.475000X-0.250000X0*%
%ADD33RoundRect,0.190000X0.170000X-0.140000X0.170000X0.140000X-0.170000X0.140000X-0.170000X-0.140000X0*%
%ADD34RoundRect,0.300000X-0.450000X-0.800000X0.450000X-0.800000X0.450000X0.800000X-0.450000X0.800000X0*%
%ADD35RoundRect,0.300000X-0.800000X0.450000X-0.800000X-0.450000X0.800000X-0.450000X0.800000X0.450000X0*%
%ADD36RoundRect,0.200000X-0.512500X-0.150000X0.512500X-0.150000X0.512500X0.150000X-0.512500X0.150000X0*%
%ADD37C,3.300000*%
G04 APERTURE END LIST*
D10*
X41960800Y-95382000D02*
X113538000Y-95382000D01*
X52984400Y-82783600D02*
X101701600Y-82783600D01*
X58826400Y-77703600D02*
X96113600Y-77703600D01*
D11*
%TO.C,J5*%
X50114200Y-87254000D03*
D12*
X50114200Y-89794000D03*
X50114200Y-92334000D03*
%TD*%
D13*
%TO.C,J1*%
X113963200Y-52633600D03*
D14*
X111963200Y-51033600D03*
D15*
X111963200Y-48533600D03*
%TD*%
D16*
%TO.C,H4*%
X114351200Y-41178400D03*
%TD*%
D17*
%TO.C,J27*%
X44320000Y-69575150D03*
X44320000Y-75355150D03*
D18*
X44820000Y-68145150D03*
X44820000Y-76785150D03*
D19*
X40640000Y-68145150D03*
X40640000Y-76785150D03*
%TD*%
D20*
%TO.C,J20*%
X45745399Y-61163200D03*
D12*
X43205399Y-61163200D03*
X40665399Y-61163200D03*
%TD*%
D11*
%TO.C,J14*%
X93929200Y-87279400D03*
D12*
X93929200Y-89819400D03*
X93929200Y-92359400D03*
%TD*%
D11*
%TO.C,J18*%
X113487200Y-87279400D03*
D12*
X113487200Y-89819400D03*
X113487200Y-92359400D03*
%TD*%
D11*
%TO.C,J4*%
X46050200Y-87254000D03*
D12*
X46050200Y-89794000D03*
X46050200Y-92334000D03*
%TD*%
D11*
%TO.C,J17*%
X109550200Y-87279400D03*
D12*
X109550200Y-89819400D03*
X109550200Y-92359400D03*
%TD*%
D20*
%TO.C,J19*%
X45745399Y-64744600D03*
D12*
X43205399Y-64744600D03*
X40665399Y-64744600D03*
%TD*%
D20*
%TO.C,J22*%
X45719999Y-46939200D03*
D12*
X43179999Y-46939200D03*
X40639999Y-46939200D03*
%TD*%
D21*
%TO.C,J25*%
X111963200Y-57307400D03*
D22*
X111963200Y-62307400D03*
%TD*%
D16*
%TO.C,H2*%
X41351200Y-81178400D03*
%TD*%
D23*
%TO.C,J26*%
X53340001Y-42545000D03*
D12*
X55880001Y-42545000D03*
X58420001Y-42545000D03*
X60960001Y-42545000D03*
X63500001Y-42545000D03*
X66040001Y-42545000D03*
X68580001Y-42545000D03*
X71120001Y-42545000D03*
X73660001Y-42545000D03*
X76200001Y-42545000D03*
X78740001Y-42545000D03*
%TD*%
D11*
%TO.C,J16*%
X105613200Y-87279400D03*
D12*
X105613200Y-89819400D03*
X105613200Y-92359400D03*
%TD*%
D16*
%TO.C,H3*%
X114351200Y-81178400D03*
%TD*%
D11*
%TO.C,J15*%
X101675800Y-87279400D03*
D12*
X101675800Y-89819400D03*
X101675800Y-92359400D03*
%TD*%
D11*
%TO.C,J6*%
X54178200Y-87254000D03*
D12*
X54178200Y-89794000D03*
X54178200Y-92334000D03*
%TD*%
D11*
%TO.C,J11*%
X81864200Y-87279400D03*
D12*
X81864200Y-89819400D03*
X81864200Y-92359400D03*
%TD*%
D20*
%TO.C,J24*%
X45745399Y-54051200D03*
D12*
X43205399Y-54051200D03*
X40665399Y-54051200D03*
%TD*%
D11*
%TO.C,J10*%
X74117200Y-87279400D03*
D12*
X74117200Y-89819400D03*
X74117200Y-92359400D03*
%TD*%
D16*
%TO.C,H1*%
X41351200Y-41178400D03*
%TD*%
D20*
%TO.C,J21*%
X45745399Y-50495200D03*
D12*
X43205399Y-50495200D03*
X40665399Y-50495200D03*
%TD*%
D20*
%TO.C,J23*%
X45719999Y-57607200D03*
D12*
X43179999Y-57607200D03*
X40639999Y-57607200D03*
%TD*%
D11*
%TO.C,J9*%
X70053200Y-87279400D03*
D12*
X70053200Y-89819400D03*
X70053200Y-92359400D03*
%TD*%
D11*
%TO.C,J8*%
X65989200Y-87279400D03*
D12*
X65989200Y-89819400D03*
X65989200Y-92359400D03*
%TD*%
D11*
%TO.C,J3*%
X41986200Y-87254000D03*
D12*
X41986200Y-89794000D03*
X41986200Y-92334000D03*
%TD*%
D11*
%TO.C,J13*%
X89839400Y-87279400D03*
D12*
X89839400Y-89819400D03*
X89839400Y-92359400D03*
%TD*%
D11*
%TO.C,J12*%
X85826200Y-87279400D03*
D12*
X85826200Y-89819400D03*
X85826200Y-92359400D03*
%TD*%
D11*
%TO.C,J7*%
X61925200Y-87279400D03*
D12*
X61925200Y-89819400D03*
X61925200Y-92359400D03*
%TD*%
D24*
%TO.C,R32*%
X64465200Y-55957200D03*
X64465200Y-57607200D03*
%TD*%
D25*
%TO.C,C6*%
X60756800Y-62590800D03*
X60756800Y-63550800D03*
%TD*%
D26*
%TO.C,C26*%
X63294785Y-54762400D03*
X62334785Y-54762400D03*
%TD*%
D27*
%TO.C,U4*%
X59270985Y-68101933D03*
X58000985Y-68101933D03*
X56730985Y-68101933D03*
X55460985Y-68101933D03*
X55460985Y-60926933D03*
X56730985Y-60926933D03*
X58000985Y-60926933D03*
X59270985Y-60926933D03*
%TD*%
D28*
%TO.C,C31*%
X99644200Y-89540001D03*
X99644200Y-91440001D03*
%TD*%
D29*
%TO.C,C7*%
X62585599Y-63093600D03*
X64485599Y-63093600D03*
%TD*%
D30*
%TO.C,C9*%
X62636400Y-60706000D03*
X63596400Y-60706000D03*
%TD*%
D31*
%TO.C,R29*%
X97040200Y-60960000D03*
X95390200Y-60960000D03*
%TD*%
D32*
%TO.C,C1*%
X49149000Y-64135001D03*
X49149000Y-62235001D03*
%TD*%
D24*
%TO.C,R30*%
X93802200Y-60947800D03*
X93802200Y-62597800D03*
%TD*%
D30*
%TO.C,C8*%
X62636400Y-61620400D03*
X63596400Y-61620400D03*
%TD*%
D33*
%TO.C,C16*%
X64516000Y-65476000D03*
X64516000Y-64516000D03*
%TD*%
%TO.C,C14*%
X61865000Y-65475999D03*
X61865000Y-64515999D03*
%TD*%
%TO.C,C17*%
X65430400Y-65475999D03*
X65430400Y-64515999D03*
%TD*%
D34*
%TO.C,D3*%
X104988000Y-48595200D03*
X109388000Y-48595200D03*
%TD*%
D35*
%TO.C,D2*%
X49530000Y-65913000D03*
X49530000Y-70313000D03*
%TD*%
D28*
%TO.C,C30*%
X76149200Y-89474000D03*
X76149200Y-91374000D03*
%TD*%
%TO.C,C23*%
X56210200Y-89413001D03*
X56210200Y-91313001D03*
%TD*%
%TO.C,C2*%
X53441600Y-64617599D03*
X53441600Y-66517599D03*
%TD*%
D24*
%TO.C,R33*%
X62431185Y-55957200D03*
X62431185Y-57607200D03*
%TD*%
D33*
%TO.C,C19*%
X66344800Y-65476000D03*
X66344800Y-64516000D03*
%TD*%
D31*
%TO.C,R14*%
X41998500Y-74193400D03*
X40348500Y-74193400D03*
%TD*%
D24*
%TO.C,R10*%
X85849985Y-43879000D03*
X85849985Y-45529000D03*
%TD*%
%TO.C,R34*%
X69138800Y-55225600D03*
X69138800Y-56875600D03*
%TD*%
D31*
%TO.C,R13*%
X41998500Y-71247000D03*
X40348500Y-71247000D03*
%TD*%
D33*
%TO.C,C15*%
X63601600Y-65476000D03*
X63601600Y-64516000D03*
%TD*%
D36*
%TO.C,U2*%
X51166600Y-63093601D03*
X51166600Y-62143601D03*
X51166600Y-61193601D03*
X53441600Y-61193601D03*
X53441600Y-63093601D03*
%TD*%
D24*
%TO.C,R31*%
X59397985Y-53687933D03*
X59397985Y-55337933D03*
%TD*%
D28*
%TO.C,C29*%
X79832200Y-89474000D03*
X79832200Y-91374000D03*
%TD*%
D33*
%TO.C,C13*%
X60865000Y-65476000D03*
X60865000Y-64516000D03*
%TD*%
D37*
X101701600Y-82783600D03*
X52984400Y-82783600D03*
X72237600Y-77703600D03*
X41960800Y-95382000D03*
X96113600Y-77703600D03*
X58877200Y-77703600D03*
X113487200Y-95382000D03*
X74726800Y-77703600D03*
M02*
