%TF.GenerationSoftware,KiCad,Pcbnew,10.0.5*%
%TF.CreationDate,2026-09-04T21:38:02+09:00*%
%TF.ProjectId,robodog_servodriver,726f626f-646f-4675-9f73-6572766f6472,rev?*%
%TF.SameCoordinates,Original*%
%TF.FileFunction,Paste,Bot*%
%TF.FilePolarity,Positive*%
%FSLAX46Y46*%
G04 Gerber Fmt 4.6, Leading zero omitted, Abs format (unit mm)*
G04 Created by KiCad (PCBNEW 10.0.5) date 2026-09-04 21:38:02*
%MOMM*%
%LPD*%
G01*
G04 APERTURE LIST*
G04 Aperture macros list*
%AMRoundRect*
0 Rectangle with rounded corners*
0 $1 Rounding radius*
0 $2 $3 $4 $5 $6 $7 $8 $9 X,Y pos of 4 corners*
0 Add a 4 corners polygon primitive as box body*
4,1,4,$2,$3,$4,$5,$6,$7,$8,$9,$2,$3,0*
0 Add four circle primitives for the rounded corners*
1,1,$1+$1,$2,$3*
1,1,$1+$1,$4,$5*
1,1,$1+$1,$6,$7*
1,1,$1+$1,$8,$9*
0 Add four rect primitives between the rounded corners*
20,1,$1+$1,$2,$3,$4,$5,0*
20,1,$1+$1,$4,$5,$6,$7,0*
20,1,$1+$1,$6,$7,$8,$9,0*
20,1,$1+$1,$8,$9,$2,$3,0*%
G04 Aperture macros list end*
%ADD10RoundRect,0.200000X-0.275000X0.200000X-0.275000X-0.200000X0.275000X-0.200000X0.275000X0.200000X0*%
%ADD11RoundRect,0.140000X-0.170000X0.140000X-0.170000X-0.140000X0.170000X-0.140000X0.170000X0.140000X0*%
%ADD12RoundRect,0.140000X0.140000X0.170000X-0.140000X0.170000X-0.140000X-0.170000X0.140000X-0.170000X0*%
%ADD13RoundRect,0.162500X0.162500X-0.650000X0.162500X0.650000X-0.162500X0.650000X-0.162500X-0.650000X0*%
%ADD14RoundRect,0.250000X-0.475000X0.250000X-0.475000X-0.250000X0.475000X-0.250000X0.475000X0.250000X0*%
%ADD15RoundRect,0.250000X-0.250000X-0.475000X0.250000X-0.475000X0.250000X0.475000X-0.250000X0.475000X0*%
%ADD16RoundRect,0.140000X-0.140000X-0.170000X0.140000X-0.170000X0.140000X0.170000X-0.140000X0.170000X0*%
%ADD17RoundRect,0.200000X0.200000X0.275000X-0.200000X0.275000X-0.200000X-0.275000X0.200000X-0.275000X0*%
%ADD18RoundRect,0.250000X0.475000X-0.250000X0.475000X0.250000X-0.475000X0.250000X-0.475000X-0.250000X0*%
%ADD19RoundRect,0.140000X0.170000X-0.140000X0.170000X0.140000X-0.170000X0.140000X-0.170000X-0.140000X0*%
%ADD20RoundRect,0.250000X-0.450000X-0.800000X0.450000X-0.800000X0.450000X0.800000X-0.450000X0.800000X0*%
%ADD21RoundRect,0.250000X-0.800000X0.450000X-0.800000X-0.450000X0.800000X-0.450000X0.800000X0.450000X0*%
%ADD22RoundRect,0.150000X-0.512500X-0.150000X0.512500X-0.150000X0.512500X0.150000X-0.512500X0.150000X0*%
G04 APERTURE END LIST*
D10*
%TO.C,R32*%
X64465200Y-55957200D03*
X64465200Y-57607200D03*
%TD*%
D11*
%TO.C,C6*%
X60756800Y-62590800D03*
X60756800Y-63550800D03*
%TD*%
D12*
%TO.C,C26*%
X63294785Y-54762400D03*
X62334785Y-54762400D03*
%TD*%
D13*
%TO.C,U4*%
X59270985Y-68101933D03*
X58000985Y-68101933D03*
X56730985Y-68101933D03*
X55460985Y-68101933D03*
X55460985Y-60926933D03*
X56730985Y-60926933D03*
X58000985Y-60926933D03*
X59270985Y-60926933D03*
%TD*%
D14*
%TO.C,C31*%
X99644200Y-89540001D03*
X99644200Y-91440001D03*
%TD*%
D15*
%TO.C,C7*%
X62585599Y-63093600D03*
X64485599Y-63093600D03*
%TD*%
D16*
%TO.C,C9*%
X62636400Y-60706000D03*
X63596400Y-60706000D03*
%TD*%
D17*
%TO.C,R29*%
X97040200Y-60960000D03*
X95390200Y-60960000D03*
%TD*%
D18*
%TO.C,C1*%
X49149000Y-64135001D03*
X49149000Y-62235001D03*
%TD*%
D10*
%TO.C,R30*%
X93802200Y-60947800D03*
X93802200Y-62597800D03*
%TD*%
D16*
%TO.C,C8*%
X62636400Y-61620400D03*
X63596400Y-61620400D03*
%TD*%
D19*
%TO.C,C16*%
X64516000Y-65476000D03*
X64516000Y-64516000D03*
%TD*%
%TO.C,C14*%
X61865000Y-65475999D03*
X61865000Y-64515999D03*
%TD*%
%TO.C,C17*%
X65430400Y-65475999D03*
X65430400Y-64515999D03*
%TD*%
D20*
%TO.C,D3*%
X104988000Y-48595200D03*
X109388000Y-48595200D03*
%TD*%
D21*
%TO.C,D2*%
X49530000Y-65913000D03*
X49530000Y-70313000D03*
%TD*%
D14*
%TO.C,C30*%
X76149200Y-89474000D03*
X76149200Y-91374000D03*
%TD*%
%TO.C,C23*%
X56210200Y-89413001D03*
X56210200Y-91313001D03*
%TD*%
%TO.C,C2*%
X53441600Y-64617599D03*
X53441600Y-66517599D03*
%TD*%
D10*
%TO.C,R33*%
X62431185Y-55957200D03*
X62431185Y-57607200D03*
%TD*%
D19*
%TO.C,C19*%
X66344800Y-65476000D03*
X66344800Y-64516000D03*
%TD*%
D17*
%TO.C,R14*%
X41998500Y-74193400D03*
X40348500Y-74193400D03*
%TD*%
D10*
%TO.C,R10*%
X85849985Y-43879000D03*
X85849985Y-45529000D03*
%TD*%
%TO.C,R34*%
X69138800Y-55225600D03*
X69138800Y-56875600D03*
%TD*%
D17*
%TO.C,R13*%
X41998500Y-71247000D03*
X40348500Y-71247000D03*
%TD*%
D19*
%TO.C,C15*%
X63601600Y-65476000D03*
X63601600Y-64516000D03*
%TD*%
D22*
%TO.C,U2*%
X51166600Y-63093601D03*
X51166600Y-62143601D03*
X51166600Y-61193601D03*
X53441600Y-61193601D03*
X53441600Y-63093601D03*
%TD*%
D10*
%TO.C,R31*%
X59397985Y-53687933D03*
X59397985Y-55337933D03*
%TD*%
D14*
%TO.C,C29*%
X79832200Y-89474000D03*
X79832200Y-91374000D03*
%TD*%
D19*
%TO.C,C13*%
X60865000Y-65476000D03*
X60865000Y-64516000D03*
%TD*%
M02*
