M48
; DRILL file KiCad 10.0.5 date 2026-09-04T21:38:02
; FORMAT={-:-/ absolute / inch / decimal}
; #@! TF.CreationDate,2026-09-04T21:38:02+09:00
; #@! TF.GenerationSoftware,Kicad,Pcbnew,10.0.5
; #@! TF.FileFunction,Plated,1,2,PTH
FMAT,2
INCH
; #@! TA.AperFunction,Plated,PTH,ViaDrill
T1C0.0118
; #@! TA.AperFunction,Plated,PTH,ComponentDrill
T2C0.0236
; #@! TA.AperFunction,Plated,PTH,ComponentDrill
T3C0.0394
; #@! TA.AperFunction,Plated,PTH,ViaDrill
T4C0.0630
; #@! TA.AperFunction,Plated,PTH,ComponentDrill
T5C0.0709
; #@! TA.AperFunction,Plated,PTH,ComponentDrill
T6C0.1260
%
G90
G05
T1
X1.6935Y-2.805
X1.6955Y-2.921
X1.732Y-3.6892
X1.732Y-3.7483
X1.732Y-3.8073
X1.75Y-1.9172
X1.75Y-2.3392
X1.752Y-2.1972
X1.752Y-2.4792
X1.7911Y-3.6892
X1.7911Y-3.7483
X1.7911Y-3.8073
X1.8335Y-2.756
X1.838Y-2.9062
X1.8501Y-3.6892
X1.8501Y-3.7483
X1.8501Y-3.8073
X1.8935Y-2.756
X1.894Y-2.9062
X1.9092Y-3.6892
X1.9092Y-3.7483
X1.9092Y-3.8073
X1.915Y-2.555
X1.918Y-2.4212
X1.92Y-2.49
X1.95Y-2.555
X1.9682Y-3.6892
X1.9682Y-3.7483
X1.9682Y-3.8073
X1.97Y-2.395
X1.985Y-2.525
X1.985Y-2.555
X2.0273Y-3.6892
X2.0273Y-3.7483
X2.0273Y-3.8073
X2.058Y-2.3712
X2.062Y-2.812
X2.0639Y-2.766
X2.0863Y-3.6892
X2.0863Y-3.7483
X2.0863Y-3.8073
X2.1Y-2.3192
X2.11Y-2.1462
X2.118Y-1.8492
X2.131Y-2.2004
X2.1454Y-3.6892
X2.1454Y-3.7483
X2.1454Y-3.8073
X2.1455Y-2.1282
X2.166Y-2.2672
X2.1835Y-2.4637
X2.1843Y-2.2155
X2.1932Y-2.0759
X2.1932Y-2.1348
X2.2012Y-2.5376
X2.2035Y-2.6237
X2.2044Y-3.6892
X2.2044Y-3.7483
X2.2044Y-3.8073
X2.208Y-2.4432
X2.2335Y-2.4637
X2.2343Y-1.8754
X2.2352Y-2.5704
X2.258Y-2.4432
X2.2635Y-3.6892
X2.2635Y-3.7483
X2.2635Y-3.8073
X2.2764Y-2.0473
X2.2835Y-2.4637
X2.286Y-2.1572
X2.2935Y-2.5644
X2.2959Y-1.7812
X2.296Y-1.8732
X2.31Y-1.9132
X2.322Y-2.0492
X2.3226Y-3.6892
X2.3226Y-3.7483
X2.3226Y-3.8073
X2.328Y-1.8492
X2.338Y-2.156
X2.3559Y-1.76
X2.3599Y-2.585
X2.363Y-2.9262
X2.3639Y-2.108
X2.3658Y-1.8023
X2.376Y-2.0371
X2.3816Y-3.6892
X2.3816Y-3.7483
X2.3816Y-3.8073
X2.3837Y-2.4384
X2.394Y-3.0061
X2.394Y-3.0652
X2.394Y-3.1243
X2.4017Y-2.3754
X2.4059Y-2.272
X2.414Y-1.9932
X2.4319Y-2.716
X2.4344Y-2.2355
X2.435Y-2.68
X2.4407Y-3.6892
X2.4407Y-3.7483
X2.4407Y-3.8073
X2.4459Y-2.646
X2.4531Y-3.0061
X2.4531Y-3.0652
X2.4531Y-3.1243
X2.454Y-1.8224
X2.4619Y-2.066
X2.4619Y-2.094
X2.4639Y-2.12
X2.4742Y-2.5497
X2.4743Y-2.3581
X2.4747Y-2.4481
X2.492Y-1.9932
X2.4946Y-2.4089
X2.4963Y-2.1949
X2.4997Y-3.6892
X2.4997Y-3.7483
X2.4997Y-3.8073
X2.5099Y-2.066
X2.5099Y-2.094
X2.5099Y-2.12
X2.5121Y-3.0061
X2.5121Y-3.0652
X2.5121Y-3.1243
X2.513Y-2.9262
X2.5141Y-2.5132
X2.5148Y-2.4562
X2.523Y-2.7662
X2.528Y-2.3772
X2.528Y-2.4212
X2.5535Y-2.3951
X2.5535Y-2.4345
X2.5535Y-2.5132
X2.5539Y-2.066
X2.5539Y-2.094
X2.5539Y-2.12
X2.5588Y-3.6892
X2.5588Y-3.7483
X2.5588Y-3.8073
X2.5588Y-2.364
X2.56Y-1.8812
X2.56Y-1.9932
X2.5712Y-3.1243
X2.5789Y-2.2819
X2.5885Y-2.1937
X2.5929Y-2.5132
X2.594Y-2.3972
X2.594Y-2.4332
X2.594Y-2.4739
X2.6051Y-2.2615
X2.6059Y-2.23
X2.6072Y-2.162
X2.6147Y-2.3715
X2.6178Y-3.6892
X2.6178Y-3.7483
X2.6178Y-3.8073
X2.6195Y-2.0863
X2.6227Y-2.6514
X2.623Y-2.8862
X2.628Y-2.6862
X2.632Y-2.4332
X2.6322Y-2.4739
X2.6345Y-2.396
X2.6359Y-2.186
X2.6362Y-2.2826
X2.6558Y-2.4532
X2.6658Y-2.0542
X2.6689Y-2.3552
X2.6699Y-2.4104
X2.6718Y-2.546
X2.6769Y-3.6892
X2.6769Y-3.7483
X2.6769Y-3.8073
X2.6992Y-2.29
X2.7005Y-2.5819
X2.7159Y-2.08
X2.7359Y-3.6892
X2.7359Y-3.7483
X2.7359Y-3.8073
X2.7699Y-2.12
X2.7699Y-2.4384
X2.78Y-2.5032
X2.7899Y-2.05
X2.795Y-3.6892
X2.795Y-3.7483
X2.795Y-3.8073
X2.7978Y-2.2068
X2.8124Y-1.9875
X2.8135Y-2.2592
X2.848Y-2.2932
X2.854Y-3.6892
X2.854Y-3.7483
X2.854Y-3.8073
X2.862Y-2.4732
X2.8699Y-1.96
X2.886Y-2.1112
X2.886Y-2.2692
X2.8928Y-2.9214
X2.898Y-2.4192
X2.9096Y-2.2352
X2.9131Y-3.6892
X2.9131Y-3.7483
X2.9131Y-3.8073
X2.932Y-2.3252
X2.9535Y-1.9682
X2.96Y-2.1872
X2.9722Y-3.6892
X2.9722Y-3.7483
X2.9722Y-3.8073
X3.006Y-2.3732
X3.02Y-3.0652
X3.02Y-3.1243
X3.0312Y-3.6892
X3.0312Y-3.7483
X3.0312Y-3.8073
X3.055Y-2.675
X3.0791Y-3.0652
X3.0791Y-3.1243
X3.0899Y-2.936
X3.0903Y-3.6892
X3.0903Y-3.7483
X3.0903Y-3.8073
X3.1374Y-2.425
X3.1381Y-3.0652
X3.1381Y-3.1243
X3.1493Y-3.6892
X3.1493Y-3.7483
X3.1493Y-3.8073
X3.1972Y-3.0652
X3.1972Y-3.1243
X3.2084Y-3.6892
X3.2084Y-3.7483
X3.2084Y-3.8073
X3.2562Y-3.0652
X3.2562Y-3.1243
X3.26Y-2.1952
X3.2603Y-1.8935
X3.2674Y-3.6892
X3.2674Y-3.7483
X3.2674Y-3.8073
X3.302Y-2.4
X3.3048Y-1.916
X3.3153Y-3.0652
X3.3153Y-3.1243
X3.3265Y-3.6892
X3.3265Y-3.7483
X3.3265Y-3.8073
X3.3743Y-3.0652
X3.3743Y-3.1243
X3.38Y-2.61
X3.38Y-2.7
X3.3855Y-3.6892
X3.3855Y-3.7483
X3.3855Y-3.8073
X3.4446Y-3.6892
X3.4446Y-3.7483
X3.4446Y-3.8073
X3.5037Y-3.6892
X3.5037Y-3.7483
X3.5037Y-3.8073
X3.522Y-2.3992
X3.544Y-3.0652
X3.544Y-3.1243
X3.5627Y-3.6892
X3.5627Y-3.7483
X3.5627Y-3.8073
X3.6031Y-3.0652
X3.6031Y-3.1243
X3.62Y-2.8349
X3.62Y-2.9852
X3.6218Y-3.6892
X3.6218Y-3.7483
X3.6218Y-3.8073
X3.6621Y-3.0652
X3.6621Y-3.1243
X3.6808Y-3.6892
X3.6808Y-3.7483
X3.6808Y-3.8073
X3.7212Y-3.1243
X3.7399Y-3.6892
X3.7399Y-3.7483
X3.7399Y-3.8073
X3.764Y-2.9672
X3.7989Y-3.6892
X3.7989Y-3.7483
X3.7989Y-3.8073
X3.858Y-3.6892
X3.858Y-3.7483
X3.858Y-3.8073
X3.872Y-2.0392
X3.917Y-3.6892
X3.917Y-3.7483
X3.917Y-3.8073
X3.93Y-1.73
X3.9761Y-3.6892
X3.9761Y-3.7483
X3.9761Y-3.8073
X4.0351Y-3.6892
X4.0351Y-3.7483
X4.0351Y-3.8073
X4.0748Y-2.406
X4.0748Y-2.4651
X4.0748Y-2.5241
X4.0748Y-2.5832
X4.0748Y-2.6423
X4.0748Y-2.7013
X4.0748Y-2.7604
X4.0748Y-2.8194
X4.0748Y-2.8785
X4.092Y-1.9152
X4.0942Y-3.6892
X4.0942Y-3.7483
X4.0942Y-3.8073
X4.1533Y-3.6892
X4.1533Y-3.7483
X4.1533Y-3.8073
X4.174Y-2.1472
X4.174Y-2.3244
X4.174Y-2.3834
X4.2123Y-3.6892
X4.2123Y-3.7483
X4.2123Y-3.8073
X4.2331Y-2.1472
X4.2331Y-2.3244
X4.2331Y-2.3834
X4.252Y-2.406
X4.252Y-2.4651
X4.252Y-2.5241
X4.252Y-2.5832
X4.252Y-2.6423
X4.252Y-2.7013
X4.252Y-2.7604
X4.252Y-2.8194
X4.252Y-2.8785
X4.2714Y-3.6892
X4.2714Y-3.7483
X4.2714Y-3.8073
X4.2921Y-2.1472
X4.2997Y-2.3352
X4.3111Y-2.5832
X4.3111Y-2.6423
X4.3111Y-2.7013
X4.3111Y-2.7604
X4.3111Y-2.8194
X4.3111Y-2.8785
X4.3304Y-3.6892
X4.3304Y-3.7483
X4.3304Y-3.8073
X4.3512Y-2.1472
X4.3512Y-2.3352
X4.3701Y-2.5832
X4.3701Y-2.6423
X4.3701Y-2.7013
X4.3701Y-2.7604
X4.3701Y-2.8194
X4.3701Y-2.8785
X4.3895Y-3.6892
X4.3895Y-3.7483
X4.3895Y-3.8073
X4.4102Y-2.1472
X4.412Y-2.3349
X4.4292Y-2.5832
X4.4292Y-2.6423
X4.4292Y-2.7013
X4.4292Y-2.7604
X4.4292Y-2.8194
X4.4292Y-2.8785
X4.4693Y-2.1472
X4.47Y-2.3352
X4.4882Y-2.5832
X4.4882Y-2.6423
X4.4882Y-2.7013
X4.4882Y-2.7604
X4.4882Y-2.8194
X4.4882Y-2.8785
X4.518Y-2.1472
X4.518Y-2.2072
X4.518Y-2.2652
X4.518Y-2.3352
T3
X1.6Y-1.848
X1.6Y-2.268
X1.601Y-1.988
X1.601Y-2.128
X1.601Y-2.408
X1.601Y-2.549
X1.653Y-3.4352
X1.653Y-3.5352
X1.653Y-3.6352
X1.7Y-1.848
X1.7Y-2.268
X1.701Y-1.988
X1.701Y-2.128
X1.701Y-2.408
X1.701Y-2.549
X1.8Y-1.848
X1.8Y-2.268
X1.801Y-1.988
X1.801Y-2.128
X1.801Y-2.408
X1.801Y-2.549
X1.813Y-3.4352
X1.813Y-3.5352
X1.813Y-3.6352
X1.973Y-3.4352
X1.973Y-3.5352
X1.973Y-3.6352
X2.1Y-1.675
X2.133Y-3.4352
X2.133Y-3.5352
X2.133Y-3.6352
X2.2Y-1.675
X2.3Y-1.675
X2.4Y-1.675
X2.438Y-3.4362
X2.438Y-3.5362
X2.438Y-3.6362
X2.5Y-1.675
X2.598Y-3.4362
X2.598Y-3.5362
X2.598Y-3.6362
X2.6Y-1.675
X2.7Y-1.675
X2.758Y-3.4362
X2.758Y-3.5362
X2.758Y-3.6362
X2.8Y-1.675
X2.9Y-1.675
X2.918Y-3.4362
X2.918Y-3.5362
X2.918Y-3.6362
X3.0Y-1.675
X3.1Y-1.675
X3.223Y-3.4362
X3.223Y-3.5362
X3.223Y-3.6362
X3.379Y-3.4362
X3.379Y-3.5362
X3.379Y-3.6362
X3.537Y-3.4362
X3.537Y-3.5362
X3.537Y-3.6362
X3.698Y-3.4362
X3.698Y-3.5362
X3.698Y-3.6362
X4.003Y-3.4362
X4.003Y-3.5362
X4.003Y-3.6362
X4.158Y-3.4362
X4.158Y-3.5362
X4.158Y-3.6362
X4.313Y-3.4362
X4.313Y-3.5362
X4.313Y-3.6362
X4.408Y-1.9108
X4.408Y-2.0092
X4.468Y-3.4362
X4.468Y-3.5362
X4.468Y-3.6362
T4
X1.652Y-3.7552
X2.086Y-3.2592
X2.318Y-3.0592
X2.844Y-3.0592
X2.942Y-3.0592
X3.784Y-3.0592
X4.004Y-3.2592
X4.468Y-3.7552
T5
X4.408Y-2.2562
X4.408Y-2.453
T6
X1.628Y-1.6212
X1.628Y-3.196
X4.502Y-1.6212
X4.502Y-3.196
T2
G00X1.6157Y-2.6829
M15
G01X1.5843Y-2.6829
M16
G05
G00X1.6157Y-3.023
M15
G01X1.5843Y-3.023
M16
G05
G00X1.7862Y-2.6829
M15
G01X1.7429Y-2.6829
M16
G05
G00X1.7862Y-3.023
M15
G01X1.7429Y-3.023
M16
G05
M30
